<?xml version="1.0" encoding="UTF-8" standalone="no"?>
<!-- Created with Inkscape (http://www.inkscape.org/) -->

<svg
   xmlns:dc="http://purl.org/dc/elements/1.1/"
   xmlns:cc="http://creativecommons.org/ns#"
   xmlns:rdf="http://www.w3.org/1999/02/22-rdf-syntax-ns#"
   xmlns:svg="http://www.w3.org/2000/svg"
   xmlns="http://www.w3.org/2000/svg"
   xmlns:sodipodi="http://sodipodi.sourceforge.net/DTD/sodipodi-0.dtd"
   xmlns:inkscape="http://www.inkscape.org/namespaces/inkscape"
   width="158.75mm"
   height="158.75mm"
   viewBox="0 0 158.75 158.75"
   version="1.1"
   id="svg8"
   inkscape:version="0.92.2 (5c3e80d, 2017-08-06)"
   sodipodi:docname="rrr.svg">
  <defs
     id="defs2" />
  <sodipodi:namedview
     id="base"
     pagecolor="#ffffff"
     bordercolor="#666666"
     borderopacity="1.0"
     inkscape:pageopacity="0.0"
     inkscape:pageshadow="2"
     inkscape:zoom="0.24748737"
     inkscape:cx="162.07015"
     inkscape:cy="538.71662"
     inkscape:document-units="mm"
     inkscape:current-layer="layer1"
     showgrid="false"
     fit-margin-top="0"
     fit-margin-left="0"
     fit-margin-right="0"
     fit-margin-bottom="0"
     inkscape:window-width="1366"
     inkscape:window-height="705"
     inkscape:window-x="-8"
     inkscape:window-y="-8"
     inkscape:window-maximized="1" />
  <metadata
     id="metadata5">
    <rdf:RDF>
      <cc:Work
         rdf:about="">
        <dc:format>image/svg+xml</dc:format>
        <dc:type
           rdf:resource="http://purl.org/dc/dcmitype/StillImage" />
        <dc:title></dc:title>
      </cc:Work>
    </rdf:RDF>
  </metadata>
  <g
     inkscape:label="Layer 1"
     inkscape:groupmode="layer"
     id="layer1"
     transform="translate(-26.836308,-107.12365)">
    <path
       style="fill:#184500;fill-opacity:1;stroke-width:0.26458332"
       d="m 26.836308,186.49865 v -79.375 h 79.375002 79.375 v 79.375 79.375 h -79.375 -79.375002 z m 80.983002,69.90519 0.56474,-1.24581 -0.33173,-10.98021 c -0.18244,-6.03911 -0.35359,-11.43215 -0.38034,-11.98453 -0.0267,-0.55237 -0.25495,-1.20721 -0.50713,-1.45521 -0.43244,-0.42524 -0.48763,-0.41536 -0.97061,0.17374 -0.34511,0.42095 -0.5107,1.02487 -0.50781,1.85208 0.002,0.6751 -0.13633,5.89723 -0.3082,11.60473 -0.29825,9.90402 -0.29015,10.4289 0.17764,11.50937 0.57924,1.3379 1.16848,2.09935 1.47702,1.90866 0.12193,-0.0754 0.47582,-0.69762 0.78642,-1.38282 z m 3.82727,-6.87226 c 0.15174,-0.10691 0.64708,-1.08897 1.10075,-2.18236 l 0.82487,-1.98797 -0.36695,-2.90682 c -0.20182,-1.59875 -0.49288,-3.97429 -0.64679,-5.27899 -0.7661,-6.49425 -0.85326,-6.81587 -1.81689,-6.70412 l -0.6938,0.0805 0.0669,2.91041 c 0.0368,1.60073 0.18131,4.5773 0.32118,6.61459 0.13987,2.03729 0.33345,5.04362 0.43018,6.68073 0.17347,2.93583 0.23593,3.1578 0.78057,2.77407 z m -8.6939,-4.29543 c 0.0594,-1.96453 0.26637,-5.95219 0.45984,-8.86146 0.19347,-2.90927 0.29429,-5.43935 0.22405,-5.62239 -0.0702,-0.18305 -0.46989,-0.33281 -0.88811,-0.33281 -0.89898,0 -0.84453,-0.18517 -1.43934,4.89479 -0.23855,2.03729 -0.59604,4.94351 -0.79442,6.45827 -0.31442,2.40073 -0.31014,2.87601 0.0334,3.70417 1.12347,2.70835 1.55599,3.47799 1.91466,3.40694 0.30359,-0.0601 0.40401,-0.80769 0.48993,-3.64751 z m -29.893066,2.25501 c 0.803971,-0.68817 1.743395,-2.1716 3.728085,-5.88698 1.459302,-2.73184 3.977302,-7.40777 5.595551,-10.39094 1.618253,-2.98318 2.908843,-5.66209 2.867981,-5.95313 -0.04826,-0.34372 -0.306099,-0.55418 -0.735756,-0.60055 -0.57993,-0.0626 -0.879081,0.27984 -2.427071,2.77813 -0.971084,1.56723 -3.788711,6.1017 -6.261391,10.0766 -3.679383,5.91471 -4.528005,7.46141 -4.673245,8.51743 -0.198012,1.43972 -7.94e-4,2.37943 0.49962,2.37943 0.182282,0 0.815084,-0.41399 1.406226,-0.91999 z m 69.446876,-0.53521 c -0.0952,-1.48038 -0.74039,-2.87154 -2.80601,-6.04995 -0.76927,-1.18367 -2.04994,-3.2237 -2.84595,-4.53339 -0.796,-1.30969 -2.33113,-3.78458 -3.4114,-5.49977 -1.08026,-1.71519 -2.38319,-3.79878 -2.8954,-4.63021 -0.96702,-1.56969 -1.75284,-1.99797 -2.34865,-1.28006 -0.34836,0.41975 -0.27173,0.58396 3.53463,7.57358 0.99059,1.81901 2.54618,4.67651 3.45687,6.35 0.9107,1.67349 2.14689,3.99521 2.74711,5.15938 1.2023,2.33198 3.21684,4.43606 4.12466,4.30799 0.4622,-0.0652 0.51841,-0.24207 0.44414,-1.39757 z m -60.815188,-4.81631 c 0.89845,-0.68444 1.721543,-1.36904 1.829093,-1.52135 0.497898,-0.70511 5.490493,-12.90708 5.491835,-13.42212 0.0013,-0.48588 -0.881624,-0.88516 -1.336138,-0.60425 -0.156035,0.0964 -1.391613,2.39607 -2.74573,5.1103 -1.354118,2.71424 -3.192049,6.38077 -4.084293,8.14784 -0.892244,1.76708 -1.622261,3.28513 -1.622261,3.37344 0,0.46781 1.017085,0.0211 2.467494,-1.08386 z m 52.565838,0.5036 c 0,-0.26194 -0.11895,-0.5952 -0.26433,-0.74059 -0.14539,-0.14538 -1.97644,-3.65177 -4.06902,-7.79198 -3.89394,-7.70424 -4.3237,-8.30887 -5.17592,-7.28201 -0.27868,0.33579 0.0303,1.25863 1.8424,5.50287 3.70528,8.67832 3.33497,8.0129 5.26821,9.46642 1.87047,1.40632 2.39866,1.59246 2.39866,0.84529 z m -17.83727,-2.80499 0.65429,-1.42915 -0.78242,-3.79637 c -0.9566,-4.64152 -0.98691,-4.72241 -1.76932,-4.72241 -0.94324,0 -1.01739,0.84034 -0.41239,4.67321 0.29487,1.86812 0.6182,4.14072 0.71851,5.05023 0.23125,2.09689 0.70361,2.16352 1.59133,0.22449 z m -17.868033,-0.0922 c 0.04205,-0.62068 0.357818,-2.97956 0.783463,-5.85278 0.266687,-1.8002 0.421868,-3.43731 0.344848,-3.63802 -0.113358,-0.2954 -1.670923,-0.56214 -1.670923,-0.28615 0,0.0433 -0.297657,1.48441 -0.661459,3.20241 -0.363802,1.71799 -0.661458,3.44612 -0.661458,3.84027 0,0.97067 0.977694,2.93271 1.461384,2.93271 0.214884,0 0.39675,-0.0893 0.404145,-0.19844 z m 43.720633,-3.15453 -0.15064,-2.16235 -1.75643,-2.33557 c -5.40068,-7.18139 -6.99503,-9.24644 -7.36181,-9.53521 -0.5164,-0.40658 -1.39228,0.0129 -1.39228,0.66678 0,0.25299 1.51805,2.72246 3.37344,5.48771 1.85539,2.76526 4.01766,6.03666 4.80504,7.26978 2.47708,3.87935 2.71457,3.9376 2.48268,0.60886 z M 74.245948,235.3849 c 1.064334,-1.63465 3.266241,-4.99185 4.893132,-7.46045 2.379319,-3.61032 2.908033,-4.58169 2.702669,-4.96541 -0.64153,-1.19871 -1.321538,-0.57364 -5.528358,5.08172 -4.433615,5.96026 -4.125589,5.33228 -4.513439,9.2017 -0.181497,1.81071 0.291367,1.45161 2.445996,-1.85756 z m 14.460532,2.05119 c 1.271868,-0.91374 1.291685,-0.95101 2.553758,-4.80243 1.292561,-3.94447 1.339977,-4.60922 0.342789,-4.80588 -0.524266,-0.1034 -0.992227,0.67333 -2.039652,3.38546 -0.4777,1.23692 -1.273119,3.2221 -1.767599,4.41151 -1.30484,3.13863 -1.207169,3.33289 0.910704,1.81134 z m 37.19893,-0.7213 c -0.57064,-1.79793 -3.29036,-8.2612 -3.61134,-8.58219 -0.41472,-0.41472 -1.14783,-0.25502 -1.35932,0.29611 -0.11947,0.31133 1.7136,6.37863 2.18124,7.21969 0.29258,0.52621 1.96313,1.62296 2.49388,1.63728 0.37712,0.0102 0.44087,-0.11298 0.29554,-0.57089 z m -6.5929,-2.52499 c 0.77981,-0.88599 0.78797,-1.07777 0.13696,-3.21872 -0.56679,-1.86399 -0.9125,-2.24057 -1.67985,-1.8299 -0.54536,0.29187 -0.53412,0.86129 0.0748,3.79185 0.47873,2.30377 0.51739,2.33687 1.46804,1.25677 z m -24.881476,-0.37599 c 0.529209,-0.24113 0.803468,-0.71622 1.236538,-2.142 l 0.556498,-1.83215 -0.548203,-0.54821 c -0.761336,-0.76133 -1.146202,-0.36969 -1.999933,2.03513 -1.009631,2.84397 -0.89033,3.23693 0.7551,2.48723 z m 47.275906,-5.53799 c -0.05,-0.78551 -0.17279,-1.57532 -0.27297,-1.75512 -0.10017,-0.1798 -1.36899,-1.69339 -2.81958,-3.36353 -1.83036,-2.10737 -2.81417,-3.03965 -3.21494,-3.04653 -0.63606,-0.0109 -1.04766,0.81177 -0.69542,1.38998 0.85275,1.39984 6.5779,8.38425 6.80682,8.304 0.17417,-0.0611 0.25123,-0.6618 0.19609,-1.5288 z m -27.55784,-0.27049 c 0.66382,-0.72621 1.47227,-1.25624 2.41683,-1.58449 1.56312,-0.54323 3.49908,-2.3222 3.35294,-3.08106 -0.0474,-0.2462 -0.35328,-0.58078 -0.6797,-0.74352 -0.59226,-0.29527 -0.59239,-0.29689 -0.0638,-0.77526 0.29133,-0.26364 0.52969,-0.70445 0.52969,-0.97955 0,-0.65767 -1.15749,-1.79905 -1.82444,-1.79905 -0.6121,0 -0.84287,0.30738 -1.07205,1.42795 -0.14313,0.69986 -0.40358,0.91173 -1.87601,1.52611 -2.00035,0.83467 -2.30019,1.53371 -0.79029,1.84252 0.50573,0.10343 1.01851,0.12687 1.13952,0.0521 0.39428,-0.24368 1.51285,0.17853 1.51285,0.57103 0,0.87251 -1.91812,1.23527 -3.62193,0.685 -1.06197,-0.34298 -1.14315,-0.32872 -1.93853,0.34054 -0.88604,0.74557 -1.4276,0.84521 -2.46009,0.45266 -0.57732,-0.2195 -0.65856,-0.43265 -0.75758,-1.98768 -0.12966,-2.03629 -0.60901,-2.76296 -1.50594,-2.28293 -0.4792,0.25646 -0.55016,0.51775 -0.51242,1.88699 0.0323,1.17329 -0.0715,1.70458 -0.39654,2.02966 -0.54741,0.54741 -1.94725,0.53161 -3.04165,-0.0343 -1.08235,-0.55971 -1.64032,-0.53624 -1.64032,0.069 0,0.54381 1.51901,1.70725 2.82211,2.16151 0.69618,0.2427 1.05498,0.19605 2.165,-0.28147 0.73178,-0.31481 1.45514,-0.49535 1.60746,-0.40122 0.15232,0.0941 0.9399,0.27906 1.75019,0.41094 0.92913,0.15122 1.76867,0.48835 2.27309,0.91279 0.43991,0.37016 0.98305,0.67302 1.20698,0.67302 0.22392,0 0.85601,-0.49106 1.40463,-1.09124 z m -38.347892,-2.9216 c 3.434395,-4.33311 3.307736,-4.11443 2.743928,-4.73743 -0.740622,-0.81838 -0.523298,-0.96195 -3.42237,2.26094 -2.139032,2.37795 -2.378617,2.77394 -2.615242,4.32257 -0.170855,1.11817 -0.06531,1.63759 0.332735,1.63759 0.109895,0 1.44232,-1.56765 2.960949,-3.48367 z m 22.10452,2.26165 c 1.375928,-0.65292 3.013912,-3.01523 3.013912,-4.34668 0,-0.39774 -0.18276,-0.51671 -0.79375,-0.51671 -0.73354,0 -0.793749,0.0716 -0.793749,0.94343 0,2.16217 -1.222629,2.90243 -4.420933,2.67672 -1.702472,-0.12015 -2.19365,-0.0778 -2.19365,0.189 0,0.29721 1.058955,0.88038 2.38125,1.31138 0.805394,0.26251 1.928688,0.15961 2.80692,-0.25714 z m 27.471722,-1.83075 c 1.28468,-0.60962 2.00089,-1.78553 2.46468,-4.04659 0.41355,-2.01616 0.41184,-2.04108 -0.27481,-4.01314 -0.51524,-1.47972 -0.81221,-1.98437 -1.16775,-1.98437 -0.68665,0 -0.72087,0.88599 -0.091,2.35547 0.63188,1.4741 0.53438,1.78409 -0.49628,1.57796 -1.08152,-0.21631 -1.24055,0.30461 -0.44393,1.45414 0.90147,1.30081 0.86697,1.76109 -0.2129,2.84097 -1.07143,1.07142 -1.68828,1.12691 -2.64729,0.23812 -0.83155,-0.77065 -1.4838,-0.85859 -1.4718,-0.19843 0.0177,0.97036 1.52983,2.18281 2.72245,2.18281 0.41857,0 1.14694,-0.18312 1.61861,-0.40694 z m -31.094318,-1.83068 c 0.646105,-0.33411 0.811985,-0.33524 1.243632,-0.008 0.770702,0.58353 2.143738,0.49769 2.493526,-0.15589 0.466897,-0.87241 0.125055,-1.37419 -0.798055,-1.17144 -0.519602,0.11412 -0.983546,0.0356 -1.364041,-0.23093 -0.427442,-0.29939 -0.708279,-0.33341 -1.085551,-0.1315 -0.714947,0.38263 -1.240377,0.10613 -1.564349,-0.82322 -0.297871,-0.85447 -0.636418,-0.94616 -2.024049,-0.5482 -0.4776,0.13698 -1.361731,0.16482 -1.964735,0.0619 -0.907095,-0.15485 -1.130549,-0.31496 -1.294345,-0.92742 -0.286901,-1.07276 -0.730673,-1.50017 -1.557607,-1.50017 -0.907402,0 -1.254913,0.40316 -1.367446,1.5864 -0.113083,1.18906 -0.74612,1.32641 -1.934755,0.4198 -1.103244,-0.84148 -1.195716,-0.84475 -1.195716,-0.0422 0,0.36678 0.357773,0.99887 0.836134,1.47723 0.795345,0.79535 0.908272,0.82794 2.315104,0.66812 0.813432,-0.0924 2.699396,-0.22905 4.191027,-0.30364 l 2.712053,-0.13562 0.276421,0.74463 c 0.234825,0.63257 0.91826,1.40609 1.242345,1.40609 0.05217,0 0.430358,-0.1735 0.840407,-0.38554 z m 17.418278,-0.70423 c 0.67818,0.0246 0.8599,-0.0747 0.8599,-0.46958 0,-0.27539 -0.16971,-0.56583 -0.37714,-0.64543 -0.41624,-0.15972 -2.26883,0.27629 -2.62929,0.61881 -0.40025,0.38034 0.11971,0.85021 0.72119,0.6517 0.31099,-0.10265 0.9524,-0.17262 1.42534,-0.1555 z m -61.586187,-1.55307 c 0.859586,-0.58373 1.619518,-1.06133 1.688737,-1.06133 0.146645,0 3.931532,-2.30891 5.856307,-3.57254 0.727605,-0.47768 3.486701,-2.19759 6.131325,-3.82201 2.644627,-1.62443 4.944839,-3.11789 5.11159,-3.31881 0.368639,-0.44419 -0.07993,-1.45747 -0.645202,-1.45747 -0.200134,0 -1.178208,0.46054 -2.173504,1.02343 -0.995293,0.56289 -2.940719,1.62146 -4.323167,2.35238 -13.581574,7.18078 -14.43719,7.67427 -15.451123,8.91164 -0.524175,0.63968 -0.953045,1.42788 -0.953045,1.75154 0,0.56171 0.07267,0.58088 1.597599,0.42149 1.268046,-0.13254 1.91999,-0.38591 3.160483,-1.22832 z m 118.273167,0.92658 c 0,-0.59118 -1.34829,-2.38398 -2.24896,-2.99041 -0.43656,-0.29393 -3.88937,-2.17439 -7.67291,-4.1788 -3.78354,-2.00439 -7.83167,-4.16237 -8.99584,-4.7955 -4.34867,-2.36502 -4.31943,-2.35362 -4.80135,-1.8717 -0.23671,0.23671 -0.35817,0.61856 -0.26991,0.84856 0.15503,0.404 2.46482,1.97956 6.46334,4.40877 1.05668,0.64197 2.4259,1.48815 3.04271,1.88041 0.6168,0.39227 2.1335,1.32239 3.37042,2.06693 1.23693,0.74456 3.45333,2.10844 4.92533,3.03086 2.95485,1.85163 3.12513,1.91944 4.9304,1.96353 0.94949,0.0232 1.25677,-0.0655 1.25677,-0.36265 z M 57.962416,222.04485 c 1.573102,-0.15799 1.763549,-0.26571 5.955877,-3.36877 7.812078,-5.7823 7.599073,-5.58673 7.100169,-6.51894 -0.153966,-0.28769 -0.398375,-0.52307 -0.543131,-0.52307 -0.296177,0 -14.404659,9.22957 -15.139817,9.90426 -0.587595,0.53926 -0.321958,1.04434 0.436385,0.82975 0.310999,-0.088 1.296731,-0.23346 2.190517,-0.32323 z m 83.413164,-0.51854 0.34558,-0.95568 -1.40829,-1.426 c -0.77456,-0.7843 -1.62624,-1.49518 -1.89262,-1.57973 -0.54814,-0.17397 -1.25269,0.30173 -1.25269,0.84578 0,0.43082 3.18494,4.03454 3.58487,4.05624 0.15266,0.008 0.43309,-0.41499 0.62315,-0.94061 z m 17.41946,0.49928 c 0.11759,-0.35277 0.14217,-0.33528 -6.28165,-4.46841 -2.83765,-1.82576 -6.10734,-3.96612 -7.26597,-4.75635 -2.08,-1.41863 -2.11304,-1.43034 -2.61645,-0.92693 -0.28042,0.28042 -0.44266,0.68496 -0.36053,0.89898 0.0821,0.21402 2.78639,2.36706 6.00948,4.78453 l 5.86017,4.39541 1.50175,0.0186 c 0.82597,0.0102 1.73989,0.12045 2.03093,0.24495 0.62844,0.26881 0.98953,0.20743 1.12227,-0.19078 z m -90.683732,-1.19331 c 0.363802,-0.28169 1.703255,-1.46576 2.976563,-2.63128 2.40851,-2.20462 2.901021,-3.17031 1.795793,-3.52109 -0.391774,-0.12435 -1.3573,0.50482 -3.93142,2.56185 -1.876658,1.49968 -3.747923,2.97138 -4.158363,3.27046 -0.419648,0.30579 -0.66602,0.6736 -0.562925,0.84041 0.285271,0.46158 3.099588,0.0842 3.880352,-0.52035 z m 80.616922,0.42082 c 0.10345,-0.2696 -0.0255,-0.57212 -0.33904,-0.79523 -1.29337,-0.9204 -4.31038,-3.26843 -5.82894,-4.53644 -1.4358,-1.19891 -1.75517,-1.35989 -2.21244,-1.11517 -0.82956,0.44397 -0.63744,1.20206 0.59006,2.32836 4.62283,4.24167 4.46096,4.13129 6.41615,4.37528 0.43656,0.0545 0.88678,0.11689 1.00049,0.13869 0.11371,0.0218 0.28188,-0.15616 0.37372,-0.39549 z m -73.890505,-1.24703 c 1.332098,-1.55924 1.481839,-2.12306 0.678088,-2.55321 -0.458288,-0.24527 -0.745699,-0.089 -2.050521,1.11516 -2.241796,2.0688 -2.390455,2.38005 -1.252942,2.62329 0.436562,0.0934 0.93337,0.18382 1.104021,0.20104 0.170649,0.0172 0.855258,-0.60661 1.521354,-1.38628 z m 30.208455,1.03693 c 0.42254,-0.20936 1.09568,-0.50407 1.49586,-0.65491 0.40018,-0.15084 0.7276,-0.46626 0.7276,-0.70094 0,-0.34636 -0.18677,-0.39523 -0.99219,-0.25962 -0.86306,0.14531 -1.02698,0.0881 -1.25959,-0.43977 -0.17002,-0.38579 -0.45913,-0.58248 -0.79375,-0.54 -0.28949,0.0368 -1.969,0.16875 -3.73226,0.29334 -3.127841,0.22101 -3.805542,0.36664 -3.805542,0.81778 0,0.42772 0.70141,0.47541 3.946192,0.26829 3.30011,-0.21065 5.21365,0.002 3.66058,0.40604 -0.47054,0.12253 -0.7276,0.3663 -0.7276,0.68996 0,0.59854 0.4423,0.63434 1.4807,0.11983 z m 19.02853,-0.69038 c 0.0946,-0.29807 0.0236,-0.72068 -0.15788,-0.93932 -0.28696,-0.34576 -0.37936,-0.34795 -0.71051,-0.0168 -0.4465,0.4465 -0.21121,1.49799 0.3352,1.49799 0.19867,0 0.43861,-0.24384 0.53319,-0.54186 z m -12.87422,-0.23254 c 0.54964,-0.28041 1.15362,-0.69572 1.34217,-0.92292 0.57464,-0.69239 -0.31306,-0.79541 -1.52525,-0.177 -1.16747,0.5956 -1.48416,0.94075 -1.23423,1.34516 0.21769,0.35223 0.26078,0.34477 1.41731,-0.24524 z m 22.76466,-0.69001 c 0.45164,-0.51438 0.82116,-1.15146 0.82116,-1.41572 0,-1.17312 0.58729,-2.1718 1.36912,-2.32817 0.94095,-0.18819 2.26683,-1.45014 2.38308,-2.2682 0.0604,-0.42498 0.37962,-0.68935 1.12734,-0.93364 0.5737,-0.18744 1.19878,-0.47001 1.38907,-0.62793 0.41032,-0.34054 0.46398,-1.28067 0.0731,-1.28067 -0.59652,0 -0.53766,-0.8297 0.11378,-1.6039 0.55187,-0.65585 0.68827,-1.0959 0.68827,-2.22046 0,-0.87683 0.13831,-1.5173 0.36901,-1.70877 0.20295,-0.16844 0.43543,-0.68903 0.51661,-1.15687 0.0812,-0.46785 0.22547,-1.23198 0.32065,-1.69808 0.16871,-0.82616 0.11651,-0.8843 -2.07853,-2.3151 -2.3179,-1.51088 -2.68269,-1.65857 -2.96566,-1.20071 -0.36909,0.5972 0.23435,1.35106 1.57082,1.96237 0.92748,0.42424 1.45369,0.84193 1.55664,1.23561 0.17578,0.67219 -0.35289,2.62049 -0.71107,2.62049 -0.13093,0 -0.15454,0.80992 -0.0535,1.83541 l 0.18086,1.8354 -0.99555,1.10195 c -0.9679,1.07135 -1.00717,1.08759 -1.41439,0.58469 -0.81167,-1.00236 -1.4596,-1.16865 -2.22075,-0.56992 -0.95069,0.74781 -0.86708,1.1793 0.38124,1.96732 0.58903,0.37184 1.13398,0.84028 1.211,1.04098 0.36581,0.95328 -1.2572,2.25834 -2.80854,2.25834 -0.44959,0 -1.30048,-0.24644 -1.89088,-0.54763 -2.07314,-1.05764 -2.58518,0.2575 -0.62526,1.60596 1.32211,0.90964 1.54519,1.75729 0.75817,2.88091 -0.38635,0.55161 -0.56964,0.59921 -1.71979,0.44664 -1.03634,-0.13748 -1.28734,-0.0945 -1.28734,0.22021 0,0.60695 1.07481,1.21474 2.14813,1.21474 0.78148,0 1.13304,-0.18336 1.79321,-0.93525 z m -17.55065,-1.03753 c 0.60219,-0.91906 0.40825,-2.10552 -0.36202,-2.21472 -0.87779,-0.12443 -1.3745,0.40996 -1.3745,1.47875 0,0.57473 -0.17707,1.06633 -0.46303,1.28549 -0.39399,0.30197 -0.40618,0.39218 -0.0818,0.60516 0.49449,0.32465 1.71771,-0.29448 2.28134,-1.15468 z m 5.37964,0.56912 c 0.17953,-0.33546 0.6759,-0.74184 1.10304,-0.90306 0.81384,-0.30719 1.04329,-1.04714 0.40113,-1.29356 -0.74917,-0.28749 -3.23226,1.72206 -2.97056,2.40404 0.23246,0.60578 1.0966,0.48355 1.46639,-0.20742 z m -40.321374,-0.40637 c 0.436563,-0.26682 1.74625,-1.37917 2.910417,-2.47188 1.164167,-1.09271 2.622682,-2.3042 3.241146,-2.69219 0.838586,-0.5261 1.124479,-0.87489 1.124479,-1.3719 0,-1.65527 -1.450927,-0.87615 -5.17811,2.78055 -2.761419,2.70919 -3.447891,2.95334 -4.675394,1.66285 -0.936784,-0.98486 -1.164574,-2.016 -0.626705,-2.83689 0.234323,-0.35762 0.426042,-0.77348 0.426042,-0.92412 0,-0.51106 -1.079251,-0.27702 -1.731817,0.37554 -1.33967,1.33967 -0.632269,3.96265 1.446512,5.36354 1.079394,0.72741 2.004078,0.76197 3.06343,0.1145 z m 13.639181,0.0834 c 1.257007,-0.65002 0.940946,-2.24216 -0.4451,-2.24216 -0.358341,0 -0.656781,0.20816 -0.758664,0.52917 -0.117652,0.37069 -0.400323,0.52916 -0.943872,0.52916 -0.941218,0 -1.034349,0.58274 -0.187881,1.17563 0.739979,0.5183 1.344994,0.52042 2.335517,0.008 z m 24.989983,-1.38631 c 0.55249,-0.40591 1.45521,-1.91497 1.45521,-2.43264 0,-1.02247 -0.96472,-0.62641 -1.70637,0.70054 -0.81407,1.45653 -0.6754,2.41283 0.25116,1.7321 z M 90.481305,216.0174 c 0.450305,-0.68725 0.283342,-1.31725 -0.527426,-1.99013 -0.520517,-0.43199 -1.254715,0.0799 -1.014063,0.70707 0.0943,0.24574 -0.0474,0.56916 -0.346456,0.79077 -0.497837,0.36892 -0.497713,0.38112 0.0076,0.75549 0.752184,0.55728 1.402395,0.46627 1.880365,-0.2632 z m 14.407085,-2.97873 c 0,-1.26587 -0.0908,-1.66922 -0.37585,-1.66922 -0.58268,0 -1.03272,3.18799 -0.55838,3.95549 0.43156,0.69827 0.93423,-0.53188 0.93423,-2.28627 z m 2.24896,0.4254 c 0,-1.56655 -0.0799,-1.96233 -0.39626,-1.96233 -0.30339,0 -0.41361,0.40036 -0.47031,1.70841 -0.0829,1.91246 0.0498,2.48849 0.53598,2.32644 0.22478,-0.0749 0.33059,-0.73829 0.33059,-2.07252 z m 18.07565,0.70903 c 0.33723,-0.69891 0.54595,-1.44585 0.46382,-1.65988 -0.27727,-0.72254 -1.06845,-0.21911 -1.68,1.069 -0.47972,1.01043 -0.5416,1.3603 -0.29345,1.6593 0.47916,0.57735 0.8381,0.32331 1.50963,-1.06842 z m 4.3835,0.51295 c 0.52801,-0.80585 0.53917,-1.47838 0.0442,-2.66305 -0.51942,-1.24314 -1.53616,-1.70794 -2.27447,-1.03978 -0.37025,0.33507 -0.51794,0.74838 -0.46409,1.29875 0.0644,0.65802 0.24132,0.85502 0.9571,1.06555 0.8157,0.23992 0.86656,0.31984 0.71561,1.12448 -0.20122,1.07259 0.37943,1.19424 1.02167,0.21405 z m -20.03411,-1.37962 c -0.16981,-1.81841 -0.55001,-2.64939 -0.85206,-1.86226 -0.0903,0.23528 -0.0995,1.05887 -0.0205,1.83018 0.079,0.77131 0.14896,1.49169 0.15548,1.60083 0.007,0.10914 0.20768,0.19843 0.447,0.19843 0.37683,0 0.41303,-0.23679 0.27012,-1.76718 z m 2.30427,0.81596 c -0.0696,-1.61178 -0.50914,-3.14982 -0.90017,-3.14982 -0.23888,0 -0.35971,0.20467 -0.3124,0.52917 0.0424,0.29104 0.14112,1.06495 0.2193,1.71979 0.19312,1.6175 0.30934,1.91526 0.69587,1.78276 0.18183,-0.0623 0.31566,-0.45919 0.2974,-0.8819 z m -9.69283,0.35591 c 0.14336,-0.1819 0.33471,-1.07487 0.42522,-1.98437 0.13446,-1.35114 0.0936,-1.65365 -0.22322,-1.65365 -0.21327,0 -0.45126,0.26789 -0.52885,0.59531 -0.35429,1.495 -0.57869,3.10473 -0.45064,3.23277 0.22874,0.22875 0.49961,0.16253 0.77749,-0.19006 z m -2.14566,-1.01244 c 0.16453,-0.49818 0.38576,-1.42601 0.49161,-2.06185 0.15141,-0.90944 0.11681,-1.13084 -0.16215,-1.03785 -0.420172,0.14006 -1.598621,3.36013 -1.416143,3.86956 0.210335,0.5872 0.769273,0.19122 1.086683,-0.76986 z m 14.38522,0.78858 c 0,-1.20426 -1.33785,-4.28117 -1.70279,-3.91623 -0.13094,0.13094 0.37441,2.62982 0.78375,3.87551 0.13374,0.40697 0.91904,0.44176 0.91904,0.0407 z m 49.2125,-0.0913 c 0,-0.2097 -0.12175,-0.45651 -0.27055,-0.54848 -0.14881,-0.092 -0.6743,-0.76673 -1.16777,-1.49948 -0.49346,-0.73276 -1.2591,-1.55237 -1.70142,-1.82136 -0.44232,-0.26899 -3.3994,-1.58058 -6.5713,-2.91465 -3.1719,-1.33408 -5.9102,-2.53968 -6.08511,-2.67913 -0.68884,-0.54913 -1.84062,0.35111 -1.51958,1.18771 0.0716,0.18656 3.71008,2.12132 8.08554,4.29948 4.37547,2.17816 8.01112,4.04959 8.07924,4.15873 0.22221,0.35603 1.15095,0.2085 1.15095,-0.18282 z M 59.11292,210.3313 c 4.291457,-2.16696 7.920843,-4.12731 8.065306,-4.35632 0.190746,-0.3024 0.137832,-0.54122 -0.193278,-0.87233 -0.504105,-0.5041 -0.988282,-0.39493 -3.768431,0.84972 -0.727604,0.32573 -1.97776,0.86008 -2.778125,1.18744 -0.800364,0.32735 -2.05052,0.86134 -2.778125,1.18665 -0.727604,0.32531 -1.858698,0.79274 -2.513541,1.03873 -1.583886,0.595 -1.814592,0.79207 -3.260046,2.78484 -1.30285,1.79617 -1.446438,2.13261 -0.907142,2.12553 0.181901,-0.002 3.841922,-1.7773 8.133382,-3.94426 z m 39.119444,1.4079 c 0.671764,-1.9009 0.677918,-1.95721 0.213918,-1.95721 -0.196178,0 -0.567621,0.50601 -0.825423,1.12448 -0.257802,0.61846 -0.589362,1.38433 -0.736799,1.70194 -0.147436,0.3176 -0.188338,0.78523 -0.0909,1.03916 0.26442,0.68907 0.747787,0.0481 1.439199,-1.90837 z m 17.913076,0.0327 c -0.72983,-1.71724 -1.08603,-2.19493 -1.40147,-1.87949 -0.21892,0.21892 0.97566,3.67573 1.3524,3.91349 0.72765,0.45921 0.74812,-0.38921 0.0491,-2.034 z m -20.091052,-0.57609 c 0.676166,-1.52893 0.790257,-2.20754 0.371147,-2.20754 -0.387872,0 -1.91511,3.16822 -1.743197,3.61621 0.23287,0.60685 0.686797,0.14081 1.37205,-1.40867 z m 22.856922,1.27902 c 0,-0.52722 -1.47093,-3.38329 -1.86924,-3.62946 -0.49061,-0.30321 -0.23164,0.87546 0.54428,2.47726 0.78276,1.61591 1.32496,2.08741 1.32496,1.1522 z m -33.384862,-0.58884 c 0.464732,-0.43296 0.526047,-0.64561 0.305165,-1.05834 -0.334987,-0.62593 -1.122982,-0.67116 -1.603598,-0.0921 -0.193738,0.23344 -0.637976,0.53307 -0.987194,0.66585 -0.524412,0.19938 -0.578239,0.30972 -0.309208,0.63389 0.472731,0.5696 1.912053,0.48677 2.594835,-0.14934 z m 8.109021,-1.44768 c 0.865521,-1.35303 1.205645,-2.51157 0.735735,-2.50609 -0.384416,0.004 -2.238687,3.17461 -2.087438,3.56876 0.231306,0.60278 0.341997,0.51575 1.351703,-1.06267 z m 27.657091,0.94293 c 0,-0.23625 -0.73235,-1.4476 -1.74066,-2.87915 -0.28683,-0.40722 -0.52486,-0.52917 -0.69697,-0.35706 -0.23356,0.23356 0.58886,2.01598 1.45725,3.15831 0.29553,0.38875 0.98038,0.44317 0.98038,0.0779 z m -40.099546,-0.93861 c 1.010301,-0.50888 2.111629,-0.92523 2.447396,-0.92523 0.709441,0 0.803058,-0.56337 0.194707,-1.17172 -0.613661,-0.61367 -0.935082,-0.53749 -3.548491,0.84099 -2.266918,1.19573 -2.793095,1.70976 -2.055006,2.00759 0.680416,0.27455 1.171512,0.14991 2.961394,-0.75163 z m -3.55142,-0.79559 c 2.414146,-1.21246 2.829105,-1.72059 1.83818,-2.25092 -0.443968,-0.2376 -0.807725,-0.12383 -2.085131,0.65215 -1.852438,1.1253 -2.404168,1.19077 -2.404168,0.2853 0,-0.45505 0.23437,-0.77586 0.768683,-1.05216 0.821005,-0.42456 1.615168,-1.1261 1.608516,-1.42093 -0.0021,-0.0987 -0.103209,-0.3359 -0.224399,-0.527 -0.178109,-0.28087 -0.517728,-0.24708 -1.771734,0.17627 -1.355738,0.4577 -1.639472,0.4782 -2.249853,0.16256 -1.389875,-0.71874 -2.022112,-2.75474 -1.283808,-4.13427 0.306276,-0.57228 2.418736,-1.61185 3.946345,-1.94205 1.625258,-0.35131 2.117553,-0.61633 1.951013,-1.05033 -0.08555,-0.22293 -0.448291,-0.40534 -0.80609,-0.40534 -0.890302,0 -1.59036,-0.40298 -3.051818,-1.75675 -1.601234,-1.48325 -2.629649,-1.53824 -3.345164,-0.17887 -0.390236,0.74139 -0.386903,1.80161 0.0091,2.89677 0.279156,0.772 0.235905,1.00863 -0.396875,2.17125 -0.965658,1.77423 -0.914842,2.60348 0.251256,4.10022 0.528791,0.67873 1.034807,1.2367 1.124479,1.23993 0.08967,0.003 0.445302,0.22294 0.790282,0.48824 0.586938,0.45137 0.605178,0.54336 0.283876,1.43191 -0.411882,1.13903 -0.117678,1.6458 1.172681,2.01991 1.289778,0.37395 1.35812,0.35797 3.874617,-0.90589 z m -6.037,-10.7651 c -0.450908,-0.45091 -0.395867,-0.85398 0.18887,-1.38316 0.554903,-0.50218 1.410549,-0.25858 1.694947,0.48255 0.269193,0.70151 -1.322144,1.46228 -1.883817,0.90061 z m 61.834506,10.96619 c 0.14338,-0.5457 0.29679,-1.5875 0.34093,-2.3151 0.0707,-1.16652 0.0187,-1.32292 -0.44044,-1.32292 -0.44473,0 -0.56469,0.28942 -0.82247,1.98438 -0.166,1.0914 -0.24638,2.1332 -0.17863,2.3151 0.24768,0.665 0.84668,0.305 1.10061,-0.66146 z m -41.567378,-1.11155 c 1.114997,-1.58106 1.33386,-2.12959 0.849704,-2.12959 -0.338923,0 -2.649318,2.94163 -2.649535,3.37343 -2.64e-4,0.75682 0.759048,0.23199 1.799831,-1.24384 z m 31.537508,1.20195 c 0,-0.44674 -2.30363,-3.33154 -2.66037,-3.33154 -0.47316,0 -0.24742,0.55875 0.86037,2.12959 1.06214,1.50611 1.8,1.99882 1.8,1.20195 z m -12.65276,-0.84026 c 2.47498,-0.42711 6.0146,-1.78093 8.04832,-3.07829 4.45445,-2.8416 7.91502,-7.40751 9.56924,-12.62575 0.65607,-2.06958 0.71838,-2.63125 0.72094,-6.4987 0.002,-3.78 -0.0651,-4.43167 -0.63144,-6.08542 -1.88584,-5.50704 -4.77957,-9.49289 -8.89076,-12.2462 -2.3273,-1.55862 -4.48915,-2.58968 -6.87917,-3.28089 -3.00925,-0.8703 -8.82248,-0.87355 -11.85312,-0.007 -8.011842,2.29181 -13.87717,8.33603 -16.100964,16.59205 -0.483502,1.79504 -0.471668,8.24335 0.01894,10.31875 0.924732,3.91187 4.039997,9.10358 6.941418,11.56812 5.596832,4.7541 12.025066,6.5564 19.056606,5.34296 z m -3.88034,-2.75042 c -0.0881,-0.14253 -0.0168,-0.73785 0.15856,-1.32292 0.24996,-0.8343 0.24837,-1.29857 -0.007,-2.1522 -0.2537,-0.84674 -0.25617,-1.25724 -0.0112,-1.84872 0.17321,-0.41816 0.41249,-0.7 0.53172,-0.62631 0.11924,0.0737 0.52214,0.80094 0.89534,1.61611 0.81563,1.78158 0.89707,3.51965 0.19468,4.15529 -0.53441,0.48364 -1.512,0.58282 -1.76174,0.17875 z m -7.279405,-2.12211 c 0,-1.21332 -0.04555,-1.16358 3.439585,-3.75579 1.38245,-1.02825 2.78301,-2.11436 3.11236,-2.41358 0.85845,-0.77993 1.32559,-0.27104 0.8529,0.92913 -0.45697,1.16023 -1.50982,2.26312 -4.26661,4.46934 -2.69839,2.15949 -3.138235,2.26754 -3.138235,0.7709 z m 14.098595,-0.91301 c -1.63294,-0.51034 -3.4066,-1.62388 -4.13908,-2.59862 -0.59595,-0.79305 -1.66156,-2.92542 -2.64144,-5.28577 -0.22655,-0.5457 -0.52268,-0.99219 -0.65808,-0.99219 -0.13539,0 -1.1013,1.07089 -2.14646,2.37975 -2.83453,3.54971 -5.212398,5.02859 -8.08541,5.02859 -2.782634,0 -4.610256,-1.26738 -5.404245,-3.74763 -0.254396,-0.79468 -0.235746,-1.14807 0.103439,-1.95985 l 0.413798,-0.99036 -1.15552,-1.10718 c -2.824832,-2.70666 -3.358166,-6.54893 -1.441529,-10.38509 0.163589,-0.32742 0.381002,-0.59531 0.483142,-0.59531 0.102142,0 0.271378,0.98208 0.376084,2.18241 0.266372,3.05363 1.148226,4.96134 2.293419,4.96134 0.571952,0 0.999744,-0.80058 1.778556,-3.32845 0.822412,-2.6694 1.823344,-4.12983 3.309093,-4.82822 2.180344,-1.02488 3.080221,-0.73611 3.080221,0.98844 0,0.84951 0.815432,1.67776 2.062502,2.09491 1.13531,0.37977 1.36113,-0.10979 0.7133,-1.54642 -0.52816,-1.17125 -0.44121,-2.25311 0.30918,-3.84675 0.8074,-1.71472 1.25823,-1.50923 2.07599,0.94627 0.39381,1.18253 0.90102,2.22104 1.12713,2.3078 0.25911,0.0994 0.62916,-0.11572 1.00094,-0.58198 0.59861,-0.75073 1.17763,-0.72623 1.17763,0.0498 0,0.23447 -0.37567,1.24131 -0.83481,2.23743 l -0.8348,1.81113 0.81604,2.84018 c 0.92004,3.20215 2.59451,7.02237 3.01638,6.88175 0.15356,-0.0512 0.48674,-0.63984 0.74042,-1.30812 0.25367,-0.66827 0.78599,-1.64084 1.18292,-2.16125 0.67744,-0.88817 0.72349,-1.49824 0.11309,-1.49824 -0.1471,0 -0.78261,0.35445 -1.41226,0.78766 -0.9987,0.68712 -1.18684,0.73701 -1.47412,0.39085 -0.50914,-0.61347 -0.17148,-4.50875 0.46678,-5.38498 0.56963,-0.782 2.91498,-2.06832 5.24354,-2.87584 l 1.57577,-0.54647 -0.0908,-1.70323 c -0.0856,-1.60541 -0.0476,-1.73732 0.66146,-2.29663 0.64007,-0.50487 0.99829,-0.57787 2.40135,-0.4894 1.38007,0.087 1.77927,0.22875 2.44739,0.86885 0.67254,0.64434 0.79834,0.96646 0.79834,2.04419 0,1.12348 -0.12813,1.41833 -1.05181,2.42041 -0.9928,1.07706 -1.0343,1.18752 -0.73956,1.96837 0.17174,0.455 0.23671,0.90283 0.14437,0.99517 -0.0923,0.0923 -0.70373,-0.20077 -1.35864,-0.65136 -1.3555,-0.93261 -1.58394,-0.95946 -2.6829,-0.31536 -0.99382,0.58247 -1.06838,1.45351 -0.13229,1.54544 0.3638,0.0357 1.46494,0.20361 2.44697,0.37309 1.78279,0.30766 3.94563,0.0481 5.3205,-0.63852 0.85208,-0.42554 1.0367,0.13278 0.57222,1.73054 -0.23477,0.80757 -0.57013,1.5821 -0.74525,1.72117 -0.17512,0.13907 -1.21137,0.33443 -2.30277,0.43415 -3.1379,0.28668 -6.15783,1.47085 -8.14507,3.19382 -1.2758,1.10615 -2.27542,2.83447 -2.05006,3.54452 0.20509,0.6462 1.2852,1.17942 2.32263,1.14661 1.49093,-0.0472 2.05166,0.16622 2.05166,0.78073 0,0.31186 0.30365,1.08517 0.67479,1.71845 0.37113,0.63329 0.60222,1.26883 0.51355,1.41231 -0.22847,0.36967 -2.96223,0.29126 -4.28766,-0.12296 z M 99.054564,197.4604 c 3.003966,-1.63496 5.569246,-5.19163 5.569246,-7.72154 v -1.1732 l -1.31779,0.18125 c -2.08787,0.28715 -3.30498,-0.0388 -4.526308,-1.21227 -1.137062,-1.09249 -1.489892,-1.10256 -2.392508,-0.0683 -0.56547,0.64794 -1.717828,3.6418 -1.947928,5.06077 -0.212469,1.31024 -1.162627,2.57151 -2.117812,2.81125 -0.364231,0.0914 -0.662239,0.27387 -0.662239,0.40545 0,0.46002 1.43593,1.94065 2.23584,2.30545 1.218912,0.55587 3.54376,0.29053 5.159499,-0.58886 z m -2.037527,-2.82495 c -0.761402,-0.24425 -0.859433,-0.38511 -0.855845,-1.22976 0.0061,-1.44423 0.276508,-1.70388 1.550183,-1.4887 l 1.090544,0.18425 0.520293,-1.21379 c 0.28616,-0.66759 0.61382,-1.212 0.728128,-1.20981 0.51828,0.01 2.31511,0.76156 2.39524,1.00194 0.0491,0.14725 -0.0958,0.71071 -0.32206,1.25213 -0.39647,0.94888 -0.44834,0.97846 -1.43816,0.82019 -1.171775,-0.18738 -1.522684,0.0842 -1.781595,1.37874 -0.180335,0.90167 -0.4362,0.97013 -1.886728,0.50481 z m 23.431683,-13.24793 c -0.13917,-0.97756 -1.77562,-0.85806 -1.79794,0.1313 -0.002,0.0987 0.18281,0.3664 0.4112,0.59479 0.57056,0.57056 1.50191,0.0829 1.38674,-0.72609 z m -1.60356,18.05452 c -0.35888,-0.20903 -0.46302,-0.62378 -0.46302,-1.84403 0,-1.50292 -0.03,-1.57436 -0.66146,-1.57436 -1.53171,0 0.0606,-1.46497 1.8906,-1.73939 1.60413,-0.24056 1.86528,0.0769 1.17552,1.42893 -0.60051,1.1771 -0.4129,1.55218 0.7042,1.40784 1.15142,-0.14877 0.45932,1.61166 -0.90865,2.31124 -0.70484,0.36045 -1.13099,0.36285 -1.73719,0.01 z M 90.388598,181.58826 c -1.006536,-0.42321 -1.020194,-0.53782 -0.252413,-2.11815 0.56638,-1.16578 0.635363,-1.21508 1.503029,-1.07428 0.500174,0.0812 1.079072,0.31724 1.286439,0.52461 0.326324,0.32632 0.282821,0.5378 -0.323437,1.5723 -0.836758,1.42782 -1.106194,1.56116 -2.213618,1.09552 z m 22.437292,-0.0124 c 0,-0.23368 0.84916,-1.33413 1.88701,-2.44545 2.44498,-2.61806 2.57565,-2.9139 1.82413,-4.12987 -0.70201,-1.13587 -0.56781,-2.05393 0.39218,-2.68294 1.07914,-0.70708 1.89051,-0.30494 2.69523,1.33585 l 0.70093,1.42917 -1.09178,1.14394 c -0.60047,0.62917 -2.07085,2.18575 -3.2675,3.45905 -2.0595,2.19144 -3.1402,2.84196 -3.1402,1.89025 z M 98.128951,180.1283 c -0.209267,-0.3386 0.580427,-2.5662 1.137714,-3.20932 0.215196,-0.24833 1.836015,-1.15902 3.601815,-2.02373 1.76579,-0.86471 4.75835,-2.46393 6.65012,-3.55381 1.89177,-1.08987 3.535,-1.89353 3.65161,-1.7859 0.27797,0.25655 -0.54421,2.36159 -1.21351,3.10697 -0.28825,0.32102 -2.14537,1.36996 -4.12693,2.33099 -3.6288,1.7599 -6.93691,3.67084 -8.319493,4.80578 -0.830519,0.68175 -1.120619,0.75086 -1.381326,0.32902 z m 9.397999,-0.16277 c -0.8693,-0.5949 -1.04219,-0.87606 -1.04701,-1.70273 -0.005,-0.86852 0.67132,-1.51338 1.11842,-1.06629 0.43529,0.43529 1.00362,0.37955 1.59803,-0.15673 0.28226,-0.25466 0.82742,-0.46302 1.21146,-0.46302 0.47034,0 0.7835,-0.19431 0.95943,-0.59531 0.50977,-1.16195 1.7232,-0.54805 1.7232,0.8718 0,0.94358 -0.68621,1.70788 -1.53337,1.70788 -0.31112,0 -0.98238,0.41672 -1.4917,0.92605 -1.0336,1.03359 -1.57737,1.13606 -2.53846,0.47835 z m -12.163559,-0.84119 c -0.90974,-0.25754 -1.012346,-1.34261 -0.212958,-2.25208 0.522275,-0.5942 0.751253,-0.66991 1.594808,-0.52735 1.225317,0.20707 1.485906,0.86041 0.807694,2.02502 -0.515393,0.88502 -1.0624,1.07349 -2.189544,0.75441 z m 2.293057,-3.9146 c -0.434319,-0.43432 -0.121936,-1.51425 0.645342,-2.23099 0.451951,-0.42219 0.944486,-0.76762 1.094521,-0.76762 0.150034,0 1.604279,-0.65484 3.231659,-1.4552 1.62737,-0.80037 3.09937,-1.45521 3.2711,-1.45521 0.5905,0 0.31168,1.28277 -0.44128,2.03017 -0.41444,0.41137 -2.24977,1.49209 -4.07851,2.4016 -3.592488,1.78669 -3.464276,1.73581 -3.722832,1.47725 z m -7.616513,32.07004 c 1.202671,-1.59293 1.259991,-1.73115 0.717886,-1.73115 -0.411406,0 -2.53818,2.41402 -2.53818,2.88099 0,0.69955 0.810573,0.18753 1.820294,-1.14984 z m 35.170145,1.15787 c -0.23394,-0.7018 -2.24427,-2.86397 -2.6739,-2.87585 -0.55301,-0.0153 -0.47712,0.15227 0.87305,1.92773 0.50932,0.66976 1.14432,1.22142 1.41111,1.22592 0.26679,0.004 0.44217,-0.12051 0.38974,-0.2778 z m -36.685295,-2.75673 c 0.945312,-0.99593 1.284378,-1.71979 0.805575,-1.71979 -0.116711,0 -0.849707,0.57998 -1.628881,1.28885 -1.040596,0.94669 -1.369748,1.41116 -1.23988,1.74959 0.207462,0.54064 0.438658,0.39288 2.063186,-1.31865 z m 38.324025,1.09454 c 0,-0.40958 -2.47717,-2.81433 -2.89908,-2.81433 -0.5474,0 -0.25363,0.57567 0.95091,1.86342 1.21074,1.29438 1.94817,1.65432 1.94817,0.95091 z m 31.32311,-0.11993 c 0.21061,-0.34078 -1.33192,-2.49844 -2.0582,-2.87898 -1.22967,-0.64429 -7.64124,-2.68154 -8.00271,-2.54282 -0.19807,0.076 -0.36012,0.46925 -0.36012,0.87389 0,0.67651 0.17561,0.80398 2.18281,1.5844 1.20055,0.46678 2.42094,0.95004 2.71198,1.0739 0.29105,0.12386 1.18401,0.47996 1.98438,0.79135 0.80036,0.31138 1.81239,0.72687 2.24896,0.9233 0.96018,0.43202 1.12061,0.45373 1.2929,0.17496 z m -97.397345,-2.02054 c 2.003909,-0.80718 3.741629,-1.46761 3.861596,-1.46761 0.119967,0 0.425902,-0.22959 0.679855,-0.5102 0.480859,-0.53135 0.368083,-1.60646 -0.168513,-1.60646 -0.155268,0 -1.802551,0.48664 -3.660627,1.08144 -3.037467,0.97233 -3.461002,1.18432 -4.197781,2.10115 -0.821405,1.02213 -1.132401,2.30592 -0.488734,2.01749 0.181902,-0.0815 1.970292,-0.80862 3.974204,-1.61581 z m 18.9784,0.91364 c 0,-0.29104 -0.09339,-0.52916 -0.207537,-0.52916 -0.114146,0 -0.418534,-0.35719 -0.676418,-0.79375 -0.494874,-0.83776 -1.497295,-1.094 -1.497295,-0.38274 0,0.61697 1.388652,2.2348 1.918229,2.23481 0.286634,1e-5 0.463021,-0.20157 0.463021,-0.52916 z m 7.029119,-1.24109 c 1.307584,-1.12888 1.808504,-1.93391 1.203359,-1.93391 -0.30195,0 -3.205395,2.38601 -3.205395,2.63414 0,0.20307 0.286438,0.54086 0.458634,0.54086 0.05822,0 0.752753,-0.55849 1.543402,-1.24109 z m 41.639446,0.77807 c -0.0186,-0.58359 -2.85586,-2.85759 -3.17154,-2.54192 -0.29337,0.29337 -0.13814,0.50271 1.39446,1.88046 1.35438,1.21755 1.80011,1.38345 1.77708,0.66146 z m 8.48144,-0.4917 c 0,-0.31465 0.16215,-0.38486 0.62217,-0.2694 0.86093,0.21608 1.01118,-0.0364 0.5511,-0.92609 -0.38176,-0.73825 -1.0019,-0.95486 -1.59669,-0.55772 -0.48973,0.32701 -0.9067,1.32299 -0.73795,1.76273 0.2106,0.54882 1.16137,0.54103 1.16137,-0.01 z m -55.880005,-0.95028 c 0.49771,-0.49771 0.386209,-1.27 -0.183359,-1.27 -0.561142,0 -0.884119,0.58875 -0.653156,1.19063 0.184071,0.47967 0.414361,0.50153 0.836515,0.0794 z m 3.751778,-0.54239 c 0.402897,-0.32742 1.045162,-0.82035 1.427255,-1.0954 0.725334,-0.52212 0.933575,-1.21983 0.363988,-1.21954 -0.519817,2.6e-4 -3.40935,2.37351 -3.234437,2.65653 0.246052,0.39811 0.650881,0.30229 1.443194,-0.34159 z m 45.249057,0.12228 c 0,-0.44852 -2.59332,-2.43739 -3.17815,-2.43739 -0.67362,0 -0.12309,0.79361 1.24951,1.80124 1.68713,1.23852 1.92864,1.31818 1.92864,0.63615 z m 15.602,-0.83416 c 0.4452,-0.83187 0.38878,-3.25769 -0.0976,-4.19834 -0.5546,-1.07249 -2.31944,-2.27297 -3.01634,-2.05179 -0.28159,0.0894 -0.72197,0.39454 -0.97864,0.67816 -0.4012,0.44331 -0.42066,0.62672 -0.13873,1.30736 0.37693,0.90999 1.07922,1.22637 1.83016,0.82448 0.86132,-0.46096 1.35128,0.29188 1.35128,2.07629 0,0.83848 0.0794,1.60388 0.17639,1.70089 0.30437,0.30437 0.58904,0.19453 0.87353,-0.33705 z m -61.459511,-1.89887 c 0.919652,-0.59917 1.672092,-1.17464 1.672092,-1.27882 0,-0.5063 -0.425219,-0.436 -1.677066,0.27728 -0.751105,0.42796 -1.544236,0.8779 -1.762517,0.99987 -0.502124,0.28057 -0.677648,1.09108 -0.236284,1.09108 0.182425,0 1.084125,-0.49023 2.003775,-1.08941 z m 52.961721,0.85487 c 0.28814,-0.1826 0.30101,-0.50202 0.0665,-1.6496 -0.15998,-0.78273 -0.32078,-1.71959 -0.35733,-2.0819 -0.0408,-0.40472 -0.26032,-0.69574 -0.56915,-0.75465 -0.46958,-0.0896 -0.49308,0.0442 -0.35692,2.03071 0.18137,2.64608 0.35697,3.0004 1.21694,2.45544 z m -5.78129,-0.40693 c 0,-0.43158 -3.32273,-2.20941 -3.60389,-1.92826 -0.2206,0.22061 0.64984,1.24427 1.06521,1.2527 0.15934,0.003 0.58737,0.23871 0.95118,0.52328 0.77846,0.60892 1.5875,0.68653 1.5875,0.15228 z m 22.65634,-0.74759 c -0.0877,-0.32742 -0.16116,-0.78923 -0.16315,-1.02623 -0.004,-0.47026 -0.70199,-0.78292 -2.87355,-1.28707 -1.20967,-0.28084 -1.47247,-0.2707 -1.81313,0.07 -0.72797,0.72796 -0.1927,1.43377 1.45305,1.91602 0.83062,0.2434 1.74835,0.5425 2.03939,0.66468 1.03448,0.43427 1.5311,0.31084 1.35739,-0.33736 z m -91.530968,-0.42531 c 1.704871,-0.58911 2.182151,-0.97342 2.012865,-1.62077 -0.163992,-0.6271 -0.731274,-0.76179 -1.929908,-0.45823 -0.509323,0.129 -1.402292,0.31886 -1.984375,0.42192 -1.128689,0.19984 -1.201785,0.4234 -0.492421,1.50603 0.498094,0.76018 0.610515,0.76728 2.393839,0.15105 z m 20.287558,-1.1291 c 0.601895,-0.30923 1.265865,-0.64516 1.475483,-0.74651 0.557618,-0.26961 0.659554,-0.80793 0.15299,-0.80793 -0.579876,0 -3.128055,1.08839 -3.374337,1.44127 -0.589264,0.8443 0.220552,0.8968 1.745864,0.11317 z m 49.84969,0.0816 c 0.0951,-0.28518 -3.04176,-1.90067 -3.69059,-1.90067 -0.65113,0 0.0904,0.73485 1.52198,1.50834 1.6111,0.87047 1.98659,0.9384 2.16861,0.39233 z m 7.33923,-0.84703 c 0.21541,-0.34853 -1.38651,-2.37655 -1.87721,-2.37655 -0.61155,0 -0.43085,0.6158 0.48525,1.6537 0.91701,1.03892 1.12869,1.14885 1.39196,0.72285 z m 19.44398,-1.13895 c 1.65154,-0.80904 1.56287,-1.32585 -0.26458,-1.54208 -0.80037,-0.0947 -2.7649,-0.37222 -4.36563,-0.61671 -1.60073,-0.24449 -3.62479,-0.54144 -4.49792,-0.65987 -0.87312,-0.11844 -2.35037,-0.35255 -3.28277,-0.52025 -0.9324,-0.1677 -2.48021,-0.41331 -3.43958,-0.5458 -0.95937,-0.13249 -2.51822,-0.37123 -3.4641,-0.53054 -0.94589,-0.15931 -2.96995,-0.46361 -4.49792,-0.67622 -1.52797,-0.2126 -3.22461,-0.45752 -3.77031,-0.54425 -0.78291,-0.12443 -0.99219,-0.0723 -0.99219,0.24711 0,0.24676 0.3357,0.46863 0.85989,0.56832 0.47295,0.0899 1.33615,0.26831 1.91823,0.3964 0.58209,0.12809 1.77271,0.37568 2.64584,0.55021 0.87312,0.17453 2.3614,0.48889 3.30729,0.69857 0.94588,0.20968 2.25557,0.49286 2.91042,0.62928 5.55496,1.15728 9.30648,1.94877 11.77395,2.48407 3.58983,0.77878 3.69315,0.78002 5.15938,0.0618 z M 58.81814,196.57311 c 2.779633,-0.61993 8.723017,-1.85397 10.351501,-2.14931 4.081442,-0.74021 13.136677,-2.71694 13.339556,-2.91199 0.457415,-0.43975 -0.632139,-0.57636 -2.296085,-0.28787 -0.907921,0.1574 -2.96045,0.46763 -4.561179,0.68939 -1.600729,0.22176 -3.684323,0.52183 -4.630208,0.66684 -5.990304,0.91832 -11.386176,1.70479 -14.552083,2.12103 -3.106869,0.40848 -3.440339,0.49243 -3.434275,0.86447 0.0058,0.35804 2.214562,1.45541 3.004648,1.49282 0.273028,0.0129 1.523185,-0.2055 2.778125,-0.48538 z m 74.26395,-0.43498 c -0.28247,-0.20848 -0.75872,-0.38285 -1.05833,-0.38747 -0.29961,-0.005 -0.77586,-0.18323 -1.05833,-0.39688 -0.28248,-0.21365 -0.72896,-0.38846 -0.99219,-0.38846 -0.68383,0 -0.59274,0.72527 0.11671,0.92925 0.32743,0.0941 0.9525,0.32582 1.38907,0.51485 1.3087,0.56665 1.57517,0.61803 1.85208,0.3571 0.17345,-0.16345 0.0877,-0.37988 -0.24901,-0.62839 z m -51.07,0.21232 c 1.543299,-0.54896 1.974218,-0.79695 1.974218,-1.13616 0,-0.36201 -0.908629,-0.30491 -1.909252,0.11997 -0.47788,0.20291 -1.203007,0.50107 -1.611397,0.66258 -0.408387,0.1615 -0.66925,0.4122 -0.579697,0.5571 0.228272,0.36936 0.621461,0.33173 2.126128,-0.20349 z m 52.27995,-2.24981 c -0.22627,-0.22628 -2.73237,-0.94332 -3.73906,-1.06982 -0.60335,-0.0758 -0.47426,0.72443 0.13229,0.82004 0.29104,0.0459 0.76729,0.18762 1.05833,0.315 1.29302,0.56591 2.12606,0.72097 2.45861,0.45765 0.21668,-0.17158 0.24959,-0.36312 0.0898,-0.52287 z m -53.307631,0.20322 c 0.522422,-0.21828 1.177179,-0.39687 1.455015,-0.39687 0.475361,0 0.96688,-0.6682 0.692992,-0.94209 -0.17503,-0.17503 -3.439197,0.67557 -3.839549,1.00054 -0.392134,0.31829 -0.192545,0.7353 0.35193,0.7353 0.214366,0 0.817192,-0.1786 1.339612,-0.39688 z m -27.028308,-1.19345 c 2.458704,-0.36333 5.48944,-0.74597 9.392708,-1.18585 1.964531,-0.22139 4.405311,-0.51637 5.423957,-0.6555 1.018646,-0.13914 3.459427,-0.43172 5.423959,-0.65018 7.207464,-0.80148 8.226784,-0.96811 8.209833,-1.3421 -0.01569,-0.34606 -2.493616,-0.3233 -8.125013,0.0746 -7.650156,0.54058 -16.325513,1.07385 -22.574403,1.38765 -6.397546,0.32126 -7.143751,0.40195 -7.143751,0.7725 0,0.13218 0.68461,0.55116 1.521355,0.93105 0.836745,0.3799 1.699948,0.80473 1.91823,0.94408 0.4106,0.26211 3.179408,0.13361 5.953125,-0.27628 z m 113.756819,-0.4299 c 1.09911,-0.52905 1.99839,-1.11162 1.99839,-1.29461 0,-0.41578 -0.66434,-0.68697 -1.18934,-0.4855 -0.21757,0.0835 -2.47976,0.0202 -5.02708,-0.1406 -2.54732,-0.16082 -6.74486,-0.41455 -9.32785,-0.56386 -2.583,-0.1493 -6.36323,-0.38524 -8.40052,-0.5243 -2.03729,-0.13906 -5.72823,-0.37808 -8.20209,-0.53114 -2.47385,-0.15306 -5.00393,-0.34114 -5.62239,-0.41795 -1.0044,-0.12474 -1.12448,-0.0814 -1.12448,0.40573 0,0.464 0.1654,0.54537 1.10855,0.54537 0.60971,0 1.77057,0.11613 2.57969,0.25807 0.80912,0.14193 3.3166,0.44648 5.57218,0.67676 2.25557,0.23029 4.87494,0.53102 5.82083,0.6683 0.94588,0.13727 3.32713,0.43237 5.29167,0.65577 3.02623,0.34413 10.07492,1.18509 12.83229,1.531 0.43656,0.0548 0.9958,0.11741 1.24275,0.13921 0.24695,0.0218 1.34828,-0.39321 2.4474,-0.92225 z M 51.724794,188.22572 c 0.645135,-0.0705 4.149536,-0.19131 7.787557,-0.26845 15.19738,-0.32228 22.667887,-0.65912 22.548693,-1.0167 -0.05434,-0.16301 -0.799629,-0.32156 -1.666211,-0.35446 -3.166809,-0.12022 -20.534439,-0.62778 -26.571024,-0.77652 -3.41974,-0.0843 -8.241772,-0.24563 -10.715626,-0.3586 l -4.497917,-0.20541 -1.455208,0.69269 c -0.800365,0.38097 -1.455208,0.83567 -1.455208,1.01043 0,0.17477 0.535781,0.62195 1.190625,0.99374 l 1.190625,0.67599 6.235359,-0.13226 c 3.429449,-0.0727 6.763199,-0.18995 7.408335,-0.26045 z M 176.59927,187.9494 c 0.72277,-0.36625 1.31412,-0.8299 1.31412,-1.03032 0,-0.20043 -0.70077,-0.64491 -1.55727,-0.98773 -1.4933,-0.59772 -1.74056,-0.61627 -6.01927,-0.45168 -2.4541,0.0944 -7.25997,0.24028 -10.67971,0.32418 -7.34311,0.18014 -23.68976,0.67123 -26.31181,0.79046 -1.09168,0.0496 -1.87944,0.20832 -1.94028,0.39083 -0.0613,0.18401 0.19828,0.31049 0.64723,0.31531 0.41231,0.004 3.90481,0.12076 7.76111,0.25852 3.8563,0.13775 10.04755,0.32636 13.75834,0.41912 3.71078,0.0928 8.41375,0.25625 10.45104,0.36331 2.03729,0.10706 5.40476,0.21249 7.48327,0.23429 3.55454,0.0373 3.8572,6e-5 5.09323,-0.62629 z m -94.12609,-3.17054 c -0.03186,-0.14552 -0.389044,-0.29494 -0.79375,-0.33205 -0.404707,-0.0371 -1.390674,-0.18468 -2.191039,-0.32794 -0.800364,-0.14326 -2.050521,-0.31853 -2.778125,-0.3895 -1.246645,-0.12159 -2.712982,-0.29282 -8.069791,-0.94238 -1.236927,-0.14998 -3.856301,-0.4531 -5.820833,-0.67359 -1.964531,-0.22048 -4.524375,-0.51823 -5.688541,-0.66165 -9.103399,-1.12151 -8.794294,-1.12293 -10.98448,0.0506 -0.919009,0.4924 -1.680959,1.01434 -1.693223,1.15986 -0.02211,0.2624 4.307223,0.60294 14.926661,1.17411 5.311077,0.28566 12.0236,0.69009 17.594791,1.06009 3.931639,0.26112 5.573538,0.22602 5.49833,-0.11753 z m 55.44113,-0.15216 c 1.06555,-0.13459 2.6729,-0.24312 3.57187,-0.24116 0.89898,0.002 3.30138,-0.11603 5.33867,-0.26218 4.79922,-0.3443 15.27884,-1.00668 19.24844,-1.21664 3.79967,-0.20097 3.96726,-0.49231 1.05833,-1.83985 l -2.05052,-0.94989 -3.30729,0.41509 c -1.81901,0.2283 -4.14073,0.53049 -5.15938,0.67152 -2.01342,0.27876 -7.06697,0.90684 -10.84791,1.34824 -1.30969,0.15289 -3.15516,0.38115 -4.10104,0.50724 -0.94589,0.12609 -2.85089,0.36246 -4.23334,0.52528 -1.38245,0.16282 -2.87073,0.3561 -3.30729,0.42952 -0.43656,0.0734 -1.27,0.19384 -1.85208,0.26758 -1.43899,0.18231 -1.78161,0.31562 -1.59348,0.62004 0.17343,0.28061 3.98367,0.1359 7.23502,-0.27479 z m -55.250919,-1.92262 c 0,-0.37116 -1.243401,-0.81957 -3.042708,-1.0973 -0.582083,-0.0898 -1.653646,-0.32373 -2.38125,-0.51974 -0.727604,-0.19601 -2.215885,-0.50452 -3.307292,-0.68559 -1.091406,-0.18107 -3.234531,-0.62053 -4.7625,-0.97658 -1.527968,-0.35604 -3.373436,-0.74317 -4.10104,-0.86028 -1.289987,-0.20762 -6.695385,-1.35347 -8.122836,-1.72189 -0.875747,-0.22604 -3.760133,0.993 -3.587205,1.51607 0.06122,0.18519 0.810287,0.42658 1.677009,0.54044 0.861499,0.11317 3.114178,0.44074 5.005948,0.72793 1.891771,0.28719 5.463646,0.82599 7.937499,1.19734 2.473854,0.37136 5.629011,0.85175 7.011459,1.06754 1.382448,0.2158 3.327159,0.49724 4.321579,0.62542 0.994418,0.12818 1.877465,0.30248 1.962325,0.38734 0.304065,0.30406 1.389012,0.14729 1.389012,-0.2007 z m 50.557439,0.0958 c 0.78825,-0.14258 4.29069,-0.68185 7.78319,-1.19838 3.4925,-0.51652 7.1239,-1.06063 8.06979,-1.20912 3.38882,-0.532 4.94139,-0.76031 8.06979,-1.1867 3.69405,-0.5035 4.05952,-0.63472 3.38342,-1.21486 -0.97963,-0.8406 -2.77766,-1.34515 -3.77508,-1.05934 -0.51219,0.14677 -1.94329,0.46465 -3.18021,0.70639 -1.23693,0.24174 -2.48709,0.49215 -2.77813,0.55647 -2.20758,0.48783 -8.42704,1.78575 -9.39271,1.96013 -0.65484,0.11825 -2.08359,0.40879 -3.175,0.64563 -1.0914,0.23684 -2.87734,0.59456 -3.96875,0.79493 -1.0914,0.20037 -2.19273,0.43316 -2.44739,0.51732 -0.25466,0.0841 -0.64916,0.2117 -0.87667,0.28343 -0.52574,0.16577 -0.23685,0.66333 0.38513,0.66333 0.25819,0 1.11436,-0.11665 1.90262,-0.25923 z m -49.947738,-2.22989 c -0.02846,-0.13207 -0.904785,-0.53459 -1.947378,-0.89449 -1.562122,-0.53925 -1.935105,-0.59049 -2.120038,-0.29126 -0.31228,0.50528 -0.05932,0.68428 1.60795,1.13779 1.548781,0.42129 2.544119,0.44069 2.459466,0.048 z m 49.554268,-0.0432 c 0.86907,-0.25264 1.42978,-0.56392 1.42978,-0.79375 0,-0.49687 -1.0518,-0.48795 -2.02027,0.0171 -0.41682,0.21738 -1.02574,0.39598 -1.35317,0.39687 -0.35205,0.001 -0.59531,0.16381 -0.59531,0.39851 0,0.51006 0.73864,0.50459 2.53897,-0.0188 z m -1.2533,-1.97141 c 0.63435,-0.28784 1.31896,-0.52335 1.52135,-0.52335 0.41296,0 0.50251,-0.67938 0.12066,-0.91538 -0.13603,-0.0841 -0.76111,0.0794 -1.38906,0.36333 -0.62796,0.2839 -1.3501,0.58004 -1.60476,0.6581 -0.52613,0.16127 -0.63713,0.95534 -0.1323,0.94647 0.18191,-0.003 0.84975,-0.24132 1.48411,-0.52917 z m -56.000155,-0.98426 c 0.248242,-0.51795 0.606271,-0.76395 1.270188,-0.87275 2.055632,-0.33689 3.296605,-2.10371 3.126615,-4.4515 -0.07792,-1.0762 -0.01556,-1.2187 0.708308,-1.61883 1.129647,-0.62442 1.620375,-1.71489 1.159365,-2.5763 -0.400418,-0.74819 -2.064875,-1.95853 -4.184351,-3.04272 -1.720705,-0.8802 -1.869805,-0.89526 -1.869805,-0.18877 0,0.96176 0.473998,1.48138 1.907669,2.09127 0.769792,0.32748 1.607982,0.77936 1.862643,1.00418 0.588328,0.51938 0.596011,1.27743 0.01521,1.50031 -0.66692,0.25592 -3.682984,-1.33189 -4.887434,-2.57299 -0.889931,-0.91702 -1.090729,-1.01691 -1.398172,-0.69558 -0.197451,0.20637 -0.441254,1.00029 -0.541785,1.76427 -0.148582,1.12915 -0.109939,1.38907 0.206524,1.38907 0.214116,0 0.537524,-0.1786 0.718682,-0.39688 0.413771,-0.49856 1.030594,-0.51244 1.216731,-0.0274 0.07799,0.20322 0.83306,0.73794 1.677943,1.18826 1.250558,0.66654 1.566981,0.97292 1.701988,1.64794 0.276238,1.3812 0.191487,1.98199 -0.382532,2.71174 -0.771366,0.98063 -1.734516,0.89864 -4.285351,-0.36482 -2.29277,-1.13563 -3.011223,-1.09901 -2.217068,0.11302 0.239914,0.36616 0.436206,0.9735 0.436206,1.34965 0,1.00756 0.658791,2.10771 1.630598,2.72301 0.998548,0.63224 1.591751,0.44428 2.127832,-0.67421 z m -2.336454,-1.00789 c -0.327639,-0.50004 -0.365138,-0.75221 -0.144642,-0.9727 0.382368,-0.38237 1.368499,0.45322 1.368499,1.15959 0,0.70706 -0.709062,0.59879 -1.223857,-0.18689 z m 10.484274,2.01034 c 0,-0.26089 -2.00138,-1.22987 -3.120303,-1.5107 -0.513101,-0.12878 -0.618374,-0.0676 -0.543909,0.3159 0.139893,0.72053 3.664212,1.86972 3.664212,1.1948 z m 58.935935,-1.09785 c 0.94318,-0.20449 1.65365,-0.49902 1.65365,-0.68555 0,-0.63747 -1.08983,-0.94716 -2.62309,-0.7454 -0.81287,0.10697 -2.18298,0.27044 -3.04467,0.36327 -1.77183,0.19087 -2.12136,0.60211 -1.02934,1.21102 0.84141,0.46918 2.42591,0.42415 5.04345,-0.14334 z m -71.908932,-0.96505 c -0.01138,-0.98267 -0.570257,-1.65364 -1.377421,-1.65364 -0.785572,0 -1.343247,0.57513 -1.206297,1.24406 0.06871,0.33561 0.299998,0.4547 0.785271,0.40432 0.422399,-0.0438 0.747432,0.0838 0.84219,0.33073 0.271335,0.70709 0.965464,0.47084 0.956257,-0.32547 z m 13.796996,0.1026 c -0.38641,-0.4656 -2.871335,-1.75624 -3.381359,-1.75624 -0.878879,0 -0.12827,0.88753 1.234443,1.45963 1.723035,0.72336 2.601857,0.84478 2.146916,0.29661 z m 46.516086,-0.38395 c 1.45983,-0.7232 2.02383,-1.37229 1.19239,-1.37229 -0.62785,0 -3.12451,1.20311 -3.54296,1.70732 -0.55351,0.66693 0.6841,0.49054 2.35057,-0.33503 z m -66.805859,-0.20057 c 0.491885,-0.49188 0.496105,-0.52725 0.141883,-1.18912 -0.15064,-0.28147 -0.479745,-0.51177 -0.73134,-0.51177 -0.251595,0 -1.087575,-0.23032 -1.857735,-0.51182 -1.520499,-0.55577 -1.60542,-0.51046 -1.710788,0.91272 -0.06022,0.81339 5.3e-4,0.8499 2.324796,1.39891 0.582084,0.1375 1.139127,0.26503 1.237872,0.28342 0.09875,0.0184 0.366638,-0.15366 0.595312,-0.38234 z m 82.172029,-0.0901 c 0,-0.61041 -3.03989,-2.77754 -3.59651,-2.56394 -0.73336,0.28141 -0.34759,0.94856 1.14911,1.98725 1.69332,1.17515 2.4474,1.35283 2.4474,0.57669 z m 6.16449,0.021 c 1.64323,-0.29612 1.84718,-0.51967 1.44535,-1.58424 -0.34987,-0.92691 -0.54488,-0.94447 -2.84734,-0.25648 -2.2032,0.65832 -2.63125,1.028 -2.27257,1.9627 0.17272,0.45012 0.57369,0.43681 3.67456,-0.12198 z m -13.28789,-1.08218 c 1.25001,-1.25001 0.93938,-2.62769 -0.36172,-1.60424 -0.85314,0.67107 -1.24613,0.66656 -1.24613,-0.0143 0,-0.89166 -2.15412,-3.69345 -2.83966,-3.69345 -0.40833,0 -1.65826,-1.16855 -1.65826,-1.5503 0,-0.1405 0.46579,-0.18895 1.0558,-0.10982 1.22414,0.16419 1.85462,-0.22372 1.85462,-1.14109 0,-0.90908 -0.79651,-1.20837 -2.70894,-1.0179 -1.46035,0.14544 -1.76355,0.0915 -2.5584,-0.45534 -2.44287,-1.68058 -2.6421,-3.82123 -0.6421,-6.89899 0.34624,-0.53282 0.39173,-0.8001 0.17336,-1.01847 -0.58207,-0.58207 -1.41248,0.0456 -2.24173,1.69451 -0.45193,0.89862 -0.95517,1.72133 -1.1183,1.82825 -0.16313,0.10691 -0.78417,0.1962 -1.38007,0.19843 -1.20405,0.005 -1.85443,-0.50922 -2.00126,-1.58074 -0.0496,-0.36232 -0.29185,-0.69716 -0.53821,-0.7441 -0.33086,-0.063 -0.49514,0.16629 -0.62856,0.87744 -0.36408,1.94075 0.89987,3.15814 3.31363,3.19155 1.36861,0.0189 1.50701,0.0811 2.0629,0.92604 0.32773,0.49816 1.21058,1.45872 1.9619,2.13458 1.33949,1.20498 1.35943,1.24478 1.02632,2.04896 -0.29035,0.70097 -0.27659,0.91644 0.0947,1.48314 0.46032,0.70253 0.81512,0.83298 1.08368,0.39843 0.26921,-0.43558 0.90966,-0.30171 1.5822,0.33073 0.8747,0.82255 3.3126,4.21629 3.3126,4.6114 0,0.35866 0.73272,0.85819 1.27712,0.87066 0.19309,0.004 0.69911,-0.33998 1.12448,-0.76535 z m -53.567252,-0.0709 c 0.107114,-0.17331 0.07888,-0.35374 -0.06275,-0.40095 -0.141626,-0.0472 -0.887473,-0.50072 -1.657439,-1.0078 -1.536349,-1.0118 -2.234015,-1.16972 -2.100297,-0.47539 0.0473,0.24562 0.800171,0.83327 1.673045,1.30588 1.820423,0.98566 1.88492,1.00302 2.147437,0.57826 z M 129.803,174.23348 c 1.61841,-0.85757 2.33811,-1.75774 1.40534,-1.75774 -0.61471,0 -3.55358,1.91102 -3.56029,2.3151 -0.008,0.49877 0.32399,0.41283 2.15495,-0.55736 z M 86.896725,173.0238 c 0,-0.53485 -2.332673,-2.40015 -3.001537,-2.40015 -0.844851,0 -0.425066,0.7312 0.951016,1.65651 1.416642,0.95259 2.050521,1.18247 2.050521,0.74364 z m 41.741555,-0.95197 c 1.35442,-0.91211 1.80531,-1.71276 0.96457,-1.71276 -0.23153,0 -0.9078,0.41672 -1.50283,0.92604 -0.59503,0.50932 -1.17951,0.92604 -1.29884,0.92604 -0.11932,0 -0.21695,0.1786 -0.21695,0.39688 0,0.6193 0.55233,0.47512 2.05405,-0.5362 z m 21.22043,0.50821 c 0.65971,-0.23367 1.4376,-0.51943 1.72864,-0.63503 0.29104,-0.11559 1.46858,-0.50719 2.61675,-0.87022 1.78666,-0.56491 2.21573,-0.82199 2.97656,-1.78346 1.53382,-1.93827 1.14434,-2.26894 -1.40868,-1.19595 -0.84634,0.3557 -2.37223,0.95895 -3.39088,1.34055 -4.24759,1.59123 -4.63021,1.797 -4.63021,2.49012 0,0.41843 0.47238,1.07885 0.77168,1.07885 0.0752,0 0.67643,-0.19118 1.33614,-0.42486 z M 65.56946,172.3218 c 0.293158,-0.76395 0.167063,-1.17766 -0.434713,-1.42622 -0.556417,-0.22982 -7.446563,-2.93708 -8.466667,-3.3267 -0.815959,-0.31164 -0.533292,0.72373 0.529881,1.94089 0.879009,1.00631 1.336609,1.25066 4.034181,2.15419 3.438851,1.1518 4.108778,1.25341 4.337318,0.65784 z m 61.09616,-1.49971 c 1.59789,-1.2393 2.09444,-1.83261 1.78919,-2.13785 -0.3409,-0.3409 -3.16406,1.90871 -3.18098,2.53473 -0.0171,0.63133 0.11443,0.59383 1.39179,-0.39688 z m -38.445979,0.34528 c 0,-0.43818 -2.494171,-2.64787 -2.995961,-2.65425 -0.784051,-0.01 -0.410372,0.65962 1.011586,1.81267 1.294284,1.04951 1.984375,1.34218 1.984375,0.84158 z m 51.725379,-0.54068 c 0.0955,-0.4349 0.28357,-0.85864 0.4179,-0.94166 0.13432,-0.083 0.24422,-0.38204 0.24422,-0.66449 0,-0.4046 -0.18524,-0.51355 -0.87312,-0.51355 -0.48022,0 -1.008,-0.13487 -1.17284,-0.29972 -0.46766,-0.46766 -1.17848,-0.0541 -1.08145,0.62926 0.0607,0.42737 0.27225,0.60463 0.74616,0.62519 1.11447,0.0483 1.15569,0.0866 0.67038,0.62291 -0.5587,0.61736 -0.36619,1.33277 0.35863,1.33277 0.35826,0 0.56964,-0.24219 0.69012,-0.79071 z m -50.381391,-1.27587 c -0.13472,-0.24582 -0.789392,-0.97728 -1.45483,-1.62545 -0.929759,-0.90564 -1.282181,-1.10619 -1.52215,-0.86622 -0.239972,0.23997 0.03191,0.65645 1.174295,1.79883 0.81761,0.81761 1.612805,1.40855 1.767096,1.31319 0.180679,-0.11167 0.193347,-0.33247 0.03559,-0.62035 z m 36.292991,-0.73759 c 1.29842,-1.25051 1.45336,-1.54101 0.97848,-1.83451 -0.30751,-0.19005 -2.89671,2.26695 -2.89671,2.7488 0,0.59991 0.68506,0.27339 1.91823,-0.91429 z m -58.831416,0.21023 c 0.140488,-0.2625 0.167624,-0.61935 0.0603,-0.793 -0.206817,-0.33464 -15.443482,-7.99014 -15.90269,-7.99014 -0.148184,0 -0.269426,0.0952 -0.269426,0.21165 0,0.41397 2.387069,3.48413 3.043201,3.91404 0.367022,0.24049 2.362525,1.12676 4.434454,1.96951 2.071925,0.84274 4.541043,1.89421 5.486929,2.33659 1.990005,0.93072 2.789399,1.01996 3.147228,0.35135 z m 87.468346,-2.60747 6.61037,-2.86838 1.38787,-1.85208 c 1.29441,-1.72738 1.67468,-2.52183 1.20025,-2.50758 -0.10914,0.003 -4.06797,1.95586 -8.7974,4.33909 -5.40693,2.72462 -8.63162,4.49502 -8.68695,4.76925 -0.12974,0.64305 0.50118,1.26689 1.13024,1.11754 0.29989,-0.0712 3.51992,-1.42022 7.15562,-2.99784 z m -63.363492,2.04668 c 0,-0.28555 -1.800188,-2.70757 -2.22441,-2.99278 -1.114621,-0.74937 -0.852562,0.37718 0.438472,1.88491 1.047258,1.22304 1.785938,1.68127 1.785938,1.10787 z m 33.037722,-1.09865 c 0.82815,-0.92398 1.10313,-1.42221 0.97079,-1.75901 -0.15572,-0.39634 -0.36903,-0.2628 -1.36257,0.85302 -1.58066,1.7752 -1.84863,2.25696 -1.23598,2.22204 0.25978,-0.0148 0.99227,-0.60703 1.62776,-1.31605 z m 17.65432,-0.37682 c 0.39691,-0.60578 0.39802,-0.71546 0.0131,-1.30286 -0.42202,-0.64408 -1.39782,-1.12917 -1.6879,-0.83909 -0.0854,0.0854 -0.0211,0.44992 0.14294,0.80996 0.24455,0.53674 0.2211,0.69782 -0.13019,0.89441 -0.61858,0.34617 -0.23159,1.09903 0.56493,1.09903 0.41595,0 0.82544,-0.24689 1.09707,-0.66145 z m -69.889089,0.15616 c 0.308988,-0.49995 -0.188135,-1.08221 -0.923978,-1.08221 -0.887548,0 -1.217139,0.4006 -0.771441,0.93763 0.354145,0.42672 1.462625,0.52125 1.695419,0.14458 z m 20.85985,0.0772 c 0.183311,-0.18331 -1.920438,-3.27608 -2.22844,-3.27608 -0.798089,0 -0.373504,1.09958 1.034968,2.68036 0.691624,0.77622 0.905976,0.88322 1.193472,0.59572 z M 122.1985,165.8193 c 1.05347,-1.41109 1.28706,-2.07595 0.79131,-2.2523 -0.29894,-0.10634 -2.491,2.82262 -2.491,3.32839 0,0.67098 0.74975,0.19631 1.69969,-1.07609 z m -39.799692,0.0543 c 0,-1.09466 -0.688128,-1.91555 -2.673186,-3.18891 -1.131242,-0.72566 -2.130676,-1.43891 -2.220965,-1.585 -0.311566,-0.50412 -1.191266,-0.29666 -1.191266,0.28094 0,0.96764 0.500759,1.52992 2.31956,2.60454 0.979816,0.57891 2.127422,1.3569 2.550239,1.72886 0.921645,0.81079 1.215618,0.84938 1.215618,0.15957 z m 12.30417,-0.27373 c -0.245745,-0.77429 -1.4567,-2.88276 -1.765115,-3.07337 -0.536707,-0.33171 -0.730813,0.31365 -0.327914,1.09024 0.962396,1.85502 2.521112,3.33189 2.093029,1.98313 z m 25.402242,-0.91663 c 0.8557,-1.33768 1.19531,-2.52625 0.72182,-2.52625 -0.21607,0 -0.55697,0.50144 -1.54939,2.27902 -1.21345,2.17351 -0.53442,2.37636 0.82757,0.24723 z m -51.197302,0.51111 c 0.219795,-0.41069 0.262374,-0.76078 0.110855,-0.91147 -0.236146,-0.23486 -10.188494,-6.43377 -11.946592,-7.44104 -0.468972,-0.26869 -2.59709,-1.58719 -4.729153,-2.92999 -3.515021,-2.21382 -4.018298,-2.45172 -5.397423,-2.55148 -0.83652,-0.0605 -1.590251,0.002 -1.674959,0.13918 -0.08471,0.13706 0.253383,0.85416 0.751313,1.59354 0.97848,1.45296 2.45666,2.36264 10.447683,6.4296 0.945886,0.4814 2.017448,1.07363 2.38125,1.31607 0.363802,0.24244 2.030677,1.16007 3.704167,2.03918 1.67349,0.87911 3.57849,1.90853 4.233332,2.28761 1.479307,0.85634 1.675215,0.859 2.119527,0.0288 z m 77.130452,0.31241 c 0.28705,-0.19492 1.59346,-0.92811 2.90315,-1.62931 2.95346,-1.58128 4.74328,-2.54083 7.20989,-3.86539 1.94314,-1.04345 4.39868,-2.35541 8.00365,-4.27625 1.09141,-0.58153 2.25969,-1.3074 2.5962,-1.61304 0.84944,-0.77154 1.70804,-2.22033 1.50782,-2.54429 -0.27734,-0.44875 -2.58025,-0.29094 -3.70715,0.25403 -0.58208,0.2815 -2.36802,1.34295 -3.96875,2.35878 -1.60073,1.01582 -3.98198,2.49505 -5.29166,3.28717 -10.9691,6.63428 -11.50499,7.03469 -10.70508,7.99853 0.39641,0.47764 0.78077,0.48553 1.45193,0.0298 z m -49.352062,-0.79558 c 0,-0.70113 -1.396122,-3.41644 -1.831184,-3.56146 -0.447995,-0.14934 -0.334439,0.90373 0.200478,1.85911 0.267276,0.47737 0.628652,1.13584 0.803058,1.46326 0.350268,0.65758 0.827648,0.79548 0.827648,0.23909 z m 20.637502,0.10328 c 0,-0.13911 0.35719,-0.85873 0.79375,-1.59914 0.43656,-0.74041 0.79375,-1.51956 0.79375,-1.73144 0,-0.7415 -0.71471,-0.37632 -1.18789,0.60696 -0.26261,0.5457 -0.57901,1.19893 -0.70313,1.45162 -0.30763,0.62635 -0.28469,1.52494 0.0389,1.52494 0.14552,0 0.26458,-0.11382 0.26458,-0.25294 z m -29.101269,-1.13612 c 0.752335,-1.23392 0.668811,-2.42402 -0.267483,-3.81135 -0.910315,-1.34883 -1.105262,-3.16332 -0.370173,-3.4454 0.490431,-0.1882 0.726606,0.12409 1.336042,1.76665 0.242967,0.65484 0.601292,1.36496 0.796277,1.57805 0.310812,0.33966 0.405673,0.33627 0.769419,-0.0275 0.376809,-0.3768 0.372983,-0.54305 -0.04169,-1.81084 -0.251124,-0.76776 -0.862045,-1.92711 -1.357601,-2.57633 -0.495557,-0.64921 -1.031687,-1.46719 -1.191403,-1.81773 -0.30089,-0.66037 -1.097822,-0.85535 -1.412833,-0.34565 -0.09915,0.16043 -0.225142,0.90457 -0.279979,1.65365 -0.05484,0.74907 -0.189101,1.89773 -0.29836,2.55258 l -0.198657,1.19062 -3.233391,0.13777 c -1.92268,0.0819 -3.358031,0.2624 -3.540863,0.44524 -0.407443,0.40744 -0.151824,1.00717 0.654457,1.53546 0.604441,0.39605 0.720109,0.39611 1.484503,8e-4 0.891797,-0.46117 3.45984,-0.71718 3.978513,-0.39662 0.198917,0.12294 0.252765,0.48564 0.144968,0.97643 -0.201126,0.91573 0.105563,1.82823 0.893585,2.6587 0.796663,0.83958 1.515796,0.75045 2.134669,-0.26458 z m -1.571538,-1.22152 c -0.283707,-0.53012 -0.13639,-1.35817 0.241631,-1.35817 0.372999,0 0.84278,0.76192 0.753544,1.22214 -0.129236,0.6665 -0.6716,0.74063 -0.995175,0.13603 z m 12.151972,1.47651 c 0,-0.81479 -1.252022,-3.50071 -1.669291,-3.58107 -0.618569,-0.11912 -0.566211,0.23134 0.329779,2.20741 0.711954,1.57018 1.339512,2.21374 1.339512,1.37366 z m 16.590095,0.01 c 0.29688,-0.39162 1.40157,-3.07829 1.40157,-3.40871 0,-0.12611 -0.17553,-0.2293 -0.39008,-0.2293 -0.44773,0 -1.19742,1.30722 -1.19742,2.08792 0,0.28968 -0.11906,0.60027 -0.26458,0.69021 -0.3258,0.20135 -0.35272,1.19062 -0.0324,1.19062 0.1277,0 0.34501,-0.14882 0.48291,-0.33073 z m -14.47343,-0.84427 c 0,-0.20969 -0.11906,-0.45484 -0.26458,-0.54478 -0.14552,-0.0899 -0.26458,-0.43638 -0.26458,-0.76988 0,-0.98846 -0.55108,-2.27283 -0.975185,-2.27283 -0.315717,0 -0.357312,0.21863 -0.208823,1.09753 0.265602,1.57208 0.862788,2.87122 1.319848,2.87122 0.21633,0 0.39332,-0.17156 0.39332,-0.38126 z m 12.67184,-0.21405 c 0.88953,-2.35281 1.02122,-3.37344 0.43523,-3.37344 -0.37974,0 -0.7121,0.91447 -1.08182,2.97657 -0.20011,1.11614 0.26639,1.40248 0.64659,0.39687 z m -10.97021,-1.5875 c -0.20788,-2.18503 -0.25439,-2.3151 -0.82763,-2.3151 -0.35006,0 -0.3903,0.23299 -0.24855,1.43907 0.20157,1.71509 0.57678,2.79426 0.97152,2.79426 0.19686,0 0.22977,-0.60318 0.10466,-1.91823 z m 9.11032,0.27971 c 0.41601,-1.71859 0.38518,-2.59481 -0.0913,-2.59481 -0.42413,0 -0.56026,0.45343 -0.76601,2.5514 -0.21446,2.1869 0.33173,2.21456 0.85729,0.0434 z m 27.47935,0.93632 c 0.1217,-0.36992 -4.65634,-3.00197 -5.44957,-3.00197 -0.36238,0 -0.56256,0.1671 -0.56256,0.46959 0,0.32652 0.74564,0.84734 2.44739,1.70949 2.39444,1.21308 3.36282,1.43662 3.56474,0.82289 z M 104.70827,160.847 c -0.061,-2.10712 -0.22012,-2.56555 -0.74052,-2.13366 -0.57258,0.4752 -0.13678,4.11011 0.46738,3.8983 0.21258,-0.0745 0.30482,-0.67043 0.27314,-1.76464 z m 2.50637,-0.51717 c -0.0594,-1.33975 -0.16934,-1.7443 -0.47416,-1.7443 -0.30309,0 -0.41573,0.39983 -0.47664,1.69192 -0.0986,2.09089 0.0521,2.60664 0.6232,2.1327 0.30498,-0.25312 0.38581,-0.76641 0.3276,-2.08032 z m 2.26643,1.36456 c 0.38726,-2.34296 0.0316,-3.93688 -0.61065,-2.73679 -0.42783,0.79941 -0.36153,3.72897 0.0844,3.72897 0.21306,0 0.42979,-0.40862 0.52625,-0.99218 z m -38.450294,0.18152 c 0.216016,-0.40363 0.211593,-0.64327 -0.01696,-0.91866 -0.170066,-0.20491 -2.82747,-2.2663 -5.90534,-4.58086 l -5.596125,-4.20828 -2.224882,-0.29702 c -2.759133,-0.36834 -2.66991,-0.3703 -2.66991,0.0589 0,0.19573 2.172891,1.77304 4.828646,3.50513 2.655755,1.73209 6.138333,4.01105 7.739061,5.06434 1.60073,1.0533 3.055057,1.91677 3.231838,1.91883 0.176781,0.002 0.452932,-0.242 0.613672,-0.54234 z m 73.887144,-0.73403 c 0.75777,-0.55854 1.66813,-1.17007 2.02302,-1.35896 1.42575,-0.75883 11.01004,-7.22511 11.19812,-7.55509 0.3009,-0.52791 -0.1084,-0.64969 -1.27465,-0.37925 -0.57405,0.13312 -1.52334,0.24488 -2.10953,0.24835 -0.67564,0.004 -1.36878,0.22424 -1.89347,0.60162 -2.65674,1.91089 -10.32022,7.76401 -10.59037,8.08858 -0.42956,0.5161 0.0305,1.37028 0.73796,1.37028 0.29214,0 1.15115,-0.45699 1.90892,-1.01553 z m -52.729529,-1.28293 c 0,-0.19106 -0.235066,-0.34738 -0.522372,-0.34738 -0.574913,0 -1.464659,1.41969 -1.179208,1.88155 0.205645,0.33274 1.70158,-1.01602 1.70158,-1.53417 z m 51.329169,-2.45301 c 4.94858,-3.83041 5.55625,-4.34291 5.55625,-4.68601 0,-0.27712 -0.33953,-0.31972 -1.52136,-0.19091 -1.46463,0.15964 -2.22139,0.46449 -3.00558,1.21075 -0.20232,0.19253 -1.35012,1.22973 -2.55067,2.30488 -1.20054,1.07515 -2.18281,2.10795 -2.18281,2.2951 0,0.51434 0.79427,1.20187 1.14581,0.99183 0.17017,-0.10167 1.32143,-0.96821 2.55836,-1.92564 z m -70.167502,1.52355 c 0.174625,-0.17463 0.3175,-0.4646 0.3175,-0.64438 0,-0.17978 -1.302607,-1.51058 -2.894682,-2.95734 -2.77804,-2.52447 -2.955163,-2.63801 -4.395739,-2.818 -1.70969,-0.21361 -2.306542,0.0844 -1.533432,0.76561 2.031562,1.79012 7.447498,5.93295 7.778749,5.95022 0.225557,0.0118 0.552979,-0.12148 0.727604,-0.29611 z m 46.867892,-0.32922 c 0.31313,-0.28339 0.70912,-0.39533 1.03386,-0.29225 0.72462,0.22998 1.57568,-0.99058 2.64976,-3.80018 0.60223,-1.57533 0.76843,-2.30799 0.56883,-2.50759 -0.46621,-0.46622 -1.12667,0.1593 -1.5255,1.44481 -0.19995,0.64445 -0.49844,1.46938 -0.66332,1.83318 -0.29204,0.64439 -0.30354,0.63415 -0.44596,-0.39688 -0.11509,-0.83321 -0.25875,-1.05833 -0.67535,-1.05833 -0.43672,0 -0.55511,0.22588 -0.67763,1.29293 -0.11686,1.01759 -0.32904,1.45426 -0.99637,2.05052 -0.98257,0.87793 -1.2429,0.90951 -2.69793,0.32733 -1.20021,-0.48023 -2.11036,-1.88091 -2.11036,-3.24775 0,-0.97935 -0.33102,-1.21341 -0.87007,-0.61523 -0.98765,1.09601 -0.62798,3.07111 0.79331,4.35641 1.35175,1.22241 4.55682,1.57222 5.61673,0.61303 z m -25.699278,-0.68253 c 0.83408,-0.50852 0.93323,-0.51367 2.116667,-0.10994 2.165789,0.73887 4.313941,-0.002 5.249381,-1.81129 0.35704,-0.69044 0.40308,-1.42109 0.27797,-4.41092 -0.0825,-1.97086 -0.25509,-3.94058 -0.38359,-4.37714 -0.28276,-0.9607 -1.2535,-1.23941 -1.50934,-0.43336 -0.16829,0.53024 0.27879,5.80106 0.55258,6.51454 0.18008,0.4693 -0.7873,2.1015 -1.570772,2.65027 -0.764985,0.53581 -2.010892,0.49704 -2.90163,-0.0903 -0.403283,-0.26592 -1.210281,-1.21764 -1.793325,-2.11492 -0.583044,-0.89729 -1.23535,-1.63143 -1.449567,-1.63143 -0.637188,0 -0.451649,-0.51378 0.668845,-1.85208 1.063586,-1.27034 1.381998,-2.38125 0.682517,-2.38125 -0.206698,0 -1.099667,0.80201 -1.984375,1.78226 -1.150467,1.27471 -1.608558,1.99052 -1.608558,2.51354 0,0.83192 0.17839,0.8945 0.969729,0.34023 0.52306,-0.36637 0.567018,-0.34549 0.69627,0.33064 0.07588,0.39693 -0.04243,1.19799 -0.262901,1.78012 -0.666366,1.75945 -0.725977,2.73996 -0.201792,3.31918 0.597313,0.66002 1.348698,0.65446 2.451891,-0.0181 z m -1.478277,-1.1237 c -0.282422,-0.35066 0.03232,-1.5158 0.409471,-1.5158 0.333402,0 0.855192,0.59162 0.855192,0.96965 0,0.52577 -0.950481,0.93623 -1.264663,0.54615 z m 18.939565,-0.53988 c 0.29041,-0.59765 0.27536,-0.95649 -0.0956,-2.27854 l -0.44029,-1.56916 1.76915,-2.26565 c 1.75217,-2.24391 2.08078,-3.19695 1.10232,-3.19695 -0.2971,0 -1.07107,0.77361 -1.98187,1.98097 -0.82192,1.08953 -1.67249,2.01363 -1.89015,2.05356 -0.21767,0.0399 -0.77626,-0.28597 -1.24131,-0.7242 -1.5913,-1.49954 -2.4808,-0.80628 -1.02831,0.80145 1.09582,1.21295 1.14938,1.58504 0.40218,2.79403 -0.35755,0.57853 -0.51715,1.21754 -0.46302,1.8538 0.0675,0.7938 0.24608,1.05827 0.97853,1.44954 0.76977,0.41121 1.01193,0.43156 1.71979,0.14456 0.45314,-0.18372 0.97899,-0.65325 1.16857,-1.04341 z m -2.41726,-0.35856 c -0.30418,-0.30418 -0.19431,-0.80118 0.31655,-1.43208 l 0.49295,-0.60876 0.31011,0.57945 c 0.49874,0.93189 -0.43298,2.14803 -1.11961,1.46139 z m -5.25586,0.86494 c 1.07816,-0.55754 1.79272,-1.43529 1.4486,-1.77942 -0.37844,-0.37844 -1.10212,-0.12342 -1.99153,0.70178 -0.72997,0.67728 -0.96934,1.44742 -0.44988,1.44742 0.15275,0 0.59952,-0.1664 0.99281,-0.36978 z m -28.409223,-0.57516 c 0.228677,-0.22867 0.415774,-0.51758 0.415774,-0.64201 0,-0.42845 -2.514153,-3.15971 -2.910416,-3.16174 -0.218282,-0.001 -0.694532,0.23405 -1.058334,0.52261 l -0.661458,0.52464 1.698231,1.58614 c 0.934027,0.87238 1.788726,1.58614 1.89933,1.58614 0.110606,0 0.388199,-0.1871 0.616873,-0.41578 z m 7.188875,-0.69498 c 1.237633,-1.14081 2.064999,-2.39837 1.771208,-2.69216 -0.312073,-0.31207 -0.794224,-0.16574 -1.44689,0.43913 -0.359021,0.33273 -1.209844,1.06145 -1.890718,1.61937 -1.448173,1.18667 -1.588309,1.74442 -0.43829,1.74442 0.571482,0 1.143513,-0.31696 2.00469,-1.11076 z m 57.205168,-0.44827 1.6689,-1.53406 -0.46113,-0.967 c -0.25362,-0.53185 -0.53093,-0.967 -0.61625,-0.967 -0.0853,0 -0.96171,0.89057 -1.94753,1.97905 -1.55602,1.71803 -1.75469,2.04953 -1.50636,2.51354 0.45149,0.84362 1.07141,0.62173 2.86237,-1.02453 z m -8.21006,0.61798 c 0.77223,-0.54089 0.7467,-1.32405 -0.0604,-1.85288 -0.88411,-0.5793 -1.61919,-0.39595 -1.53305,0.38238 0.0647,0.58484 0.014,0.60212 -1.25677,0.42735 -1.05488,-0.14508 -1.32423,-0.10545 -1.32423,0.19487 0,0.59484 1.27002,1.10457 3.04998,1.22413 0.29505,0.0198 0.80106,-0.14932 1.12448,-0.37585 z m -53.439875,-2.02229 c 0.174625,-0.17462 0.3175,-0.47965 0.3175,-0.67784 0,-0.19819 -1.189771,-1.8503 -2.643934,-3.67135 -1.454166,-1.82105 -2.749113,-3.49895 -2.877664,-3.72866 -0.142915,-0.25537 -0.407075,-0.35113 -0.679865,-0.24645 -0.369038,0.14161 -0.415465,0.38872 -0.268656,1.42994 0.09761,0.69231 0.363128,1.55639 0.590032,1.9202 0.671592,1.07677 4.604951,5.29166 4.938215,5.29166 0.16878,0 0.449747,-0.14287 0.624372,-0.3175 z m 26.105065,-0.65196 c 0.2884,-1.53728 -0.10996,-5.38054 -0.5577,-5.38054 -0.60828,0 -0.82304,1.05371 -0.70101,3.43959 0.13484,2.63642 0.20084,2.91041 0.7011,2.91041 0.22314,0 0.4496,-0.39373 0.55761,-0.96946 z m 33.74537,-1.83341 c 2.87473,-3.20779 3.0556,-3.49714 3.23539,-5.1761 0.11799,-1.10181 -0.1157,-2.13172 -0.40911,-1.80295 -0.0612,0.0685 -0.57366,0.72898 -1.13886,1.46764 -0.56521,0.73865 -2.06944,2.63349 -3.34275,4.21075 -2.2387,2.7731 -2.68039,3.64746 -1.98438,3.92831 0.82544,0.33307 1.28137,0.004 3.63971,-2.62765 z m -19.31627,2.14141 c 0.26278,-0.31663 0.26278,-0.47711 0,-0.79375 -0.66118,-0.79667 -1.60363,-0.18712 -1.22723,0.79375 0.0838,0.21829 0.32004,0.39688 0.52507,0.39688 0.20503,0 0.521,-0.17859 0.70216,-0.39688 z m -37.348876,-2.34823 c 0.05522,-0.2909 -0.721452,-1.71382 -1.877438,-3.43958 -1.084395,-1.61889 -3.246485,-4.8782 -4.804648,-7.24291 -1.558163,-2.36472 -2.95488,-4.29948 -3.103814,-4.29948 -0.374269,0 -0.01117,3.88599 0.45325,4.8507 0.19849,0.41231 2.061705,3.00538 4.140478,5.76238 3.294806,4.36978 3.864141,5.00325 4.438787,4.93888 0.398227,-0.0446 0.696484,-0.27026 0.753385,-0.56999 z m 17.63159,0.11764 c 0.08917,-0.28094 -0.02692,-1.26321 -0.257976,-2.18281 -0.624044,-2.48371 -0.604674,-2.44604 -1.062242,-2.06629 -0.51576,0.42804 -0.498231,0.78013 0.146627,2.94544 0.550331,1.84791 0.883417,2.21791 1.173591,1.30366 z m 37.746036,-5.37618 c 2.4165,-3.23783 4.51723,-6.12725 4.66828,-6.42091 0.15106,-0.29367 0.36015,-1.51406 0.46464,-2.71198 0.15615,-1.79003 0.12337,-2.17804 -0.184,-2.17804 -0.20569,0 -0.59717,0.38695 -0.86994,0.85989 -0.27278,0.47295 -2.57434,4.01127 -5.11459,7.86294 -2.54025,3.85167 -4.6772,7.15565 -4.74878,7.34219 -0.2255,0.58764 0.15116,1.13289 0.7826,1.13289 0.48462,0 1.50066,-1.19586 5.00179,-5.88698 z m -10.24518,5.19722 c 0.89582,-0.34376 0.40571,-0.83164 -0.96804,-0.96364 -1.53697,-0.14768 -2.12559,-0.0199 -1.97624,0.42923 0.15553,0.46763 2.16692,0.83271 2.94428,0.53441 z m -6.4159,-0.6993 c 0.75003,-0.60432 0.78228,-1.24754 0.0969,-1.93292 -0.68306,-0.68306 -1.31996,-0.83021 -1.60402,-0.37059 -0.0939,0.15189 -0.0188,0.45922 0.1669,0.68294 0.25418,0.30626 0.26449,0.52382 0.0417,0.8805 -0.52682,0.84357 0.46701,1.41001 1.29848,0.74007 z m -35.284598,-1.43599 c 0.04999,-0.35106 -1.381959,-3.2966 -3.665792,-7.54062 -2.061302,-3.8305 -4.285366,-7.97657 -4.942366,-9.21349 -2.00783,-3.78013 -2.747597,-5.02709 -2.982365,-5.02709 -0.123674,0 -0.592944,-0.30972 -1.042821,-0.68826 -1.290976,-1.08629 -1.711108,-0.72292 -1.48944,1.28819 0.15961,1.44808 0.417608,2.01982 2.117125,4.69174 1.06445,1.67349 2.919296,4.65005 4.121882,6.61458 3.580083,5.84839 5.761527,9.35455 6.223794,10.0033 0.547656,0.76858 1.54323,0.69161 1.659983,-0.12835 z m 45.367948,-1.1437 c 2.01855,-3.2897 2.45285,-3.98937 4.72147,-7.60652 2.18123,-3.47782 5.28603,-8.49834 6.37699,-10.31171 0.64815,-1.07734 1.03698,-3.68082 0.60347,-4.0406 -0.20954,-0.1739 -0.74156,0.0487 -1.67035,0.6989 -1.17774,0.82446 -1.58391,1.37183 -2.98996,4.0294 -2.10708,3.98257 -3.36898,6.32041 -3.94502,7.30866 -0.37427,0.64209 -4.0364,7.47166 -5.45076,10.16521 -0.23714,0.45164 -0.25729,0.78759 -0.0684,1.14054 0.48596,0.90802 1.30245,0.44161 2.42256,-1.38388 z m -20.31786,0.58914 c 1.21918,-0.66652 1.92142,-1.64747 1.17939,-1.64747 -0.59692,0 -3.16046,1.62534 -3.16046,2.00379 0,0.54696 0.49001,0.45882 1.98107,-0.35632 z m -21.978757,-0.74974 c 0.672089,-0.2579 0.497075,-1.17803 -0.806276,-4.23899 -4.770284,-11.20313 -4.178617,-10.12139 -6.429766,-11.75539 -1.367018,-0.99225 -2.135026,-1.29217 -2.135026,-0.83377 0,0.15552 6.246177,12.67503 8.244945,16.52573 0.258173,0.49738 0.4699,0.55424 1.126123,0.30242 z m 41.614307,-7.90919 c 2.21201,-4.36562 4.02771,-8.0268 4.0349,-8.13594 0.0325,-0.49393 -0.88569,-0.0984 -2.45656,1.05834 -1.69577,1.24865 -1.71663,1.27984 -3.22934,4.82864 -4.34153,10.18516 -4.07802,9.43177 -3.50082,10.00898 0.17887,0.17887 0.5063,0.29198 0.72761,0.25135 0.23182,-0.0426 2.10714,-3.43838 4.42421,-8.01137 z m -7.19956,5.95313 c 0.19687,-0.36381 0.85217,-1.91162 1.45623,-3.43959 0.60406,-1.52797 1.32781,-3.28732 1.60833,-3.90968 0.54511,-1.20936 0.64982,-1.91115 0.28516,-1.91115 -0.28526,0 -2.18582,1.37423 -2.60439,1.88315 -0.36254,0.4408 -2.45757,6.50833 -2.46047,7.12591 -0.002,0.53443 0.55257,1.08055 1.00286,0.98668 0.19489,-0.0406 0.51541,-0.37152 0.71228,-0.73532 z m -30.352501,-0.26459 c 0.03952,-0.3638 -0.440852,-2.20739 -1.067499,-4.09686 -1.109803,-3.34631 -1.173427,-3.46122 -2.453105,-4.43044 -2.156765,-1.63352 -2.180916,-1.46333 -0.412777,2.90907 0.713817,1.76518 1.446244,3.66211 1.627616,4.21539 0.506214,1.54422 1.045993,2.23393 1.677723,2.14372 0.370785,-0.0529 0.580139,-0.29991 0.628042,-0.74088 z m 27.333101,-2.45034 0.55387,-1.85982 -0.80118,-0.80118 -0.80117,-0.80118 -0.25664,0.64116 c -0.14115,0.35263 -0.44928,1.47459 -0.68472,2.49324 -0.42301,1.83012 -0.42131,1.85762 0.14336,2.31909 0.8042,0.65722 1.17765,0.25448 1.84648,-1.99131 z m -23.654705,1.7642 c 0.16951,-0.44174 -0.419918,-4.03782 -0.686104,-4.18591 -0.08455,-0.047 -0.600216,-0.16609 -1.145919,-0.26456 -1.19865,-0.21629 -1.196025,-0.2384 -0.314719,2.65096 0.610949,2.00298 0.741661,2.22107 1.331222,2.22107 0.359563,0 0.726546,-0.1897 0.81552,-0.42156 z m 3.517453,-0.75902 c 0.253523,-0.30548 0.197903,-1.32099 -0.264473,-4.82865 -0.322032,-2.443 -0.626779,-4.59064 -0.677214,-4.77254 -0.211569,-0.76304 -0.880213,-0.23313 -1.437082,1.1389 l -0.596479,1.46963 0.711314,3.35902 c 0.391223,1.84746 0.761137,3.50784 0.822031,3.68974 0.151355,0.45213 1.049097,0.4172 1.441903,-0.0561 z m 15.841312,-0.0762 c 0.13265,-0.25466 0.57765,-2.16113 0.98887,-4.23659 l 0.74769,-3.77358 -0.7121,-1.45194 c -1.10076,-2.2444 -1.23234,-2.07799 -1.78095,2.25221 -0.15671,1.23693 -0.46342,3.30164 -0.68158,4.58824 -0.30411,1.79352 -0.32449,2.42623 -0.0873,2.71198 0.42725,0.5148 1.23513,0.46697 1.52541,-0.0903 z m -12.01521,-0.30049 c 0.14422,-0.23334 -0.57485,-15.25991 -0.80858,-16.89743 -0.19098,-1.33792 -0.70358,-1.02647 -1.68183,1.02188 l -0.8987,1.88177 0.31781,2.68229 c 0.79656,6.72292 1.33014,10.65673 1.50327,11.08281 0.19464,0.47904 1.31254,0.64207 1.56803,0.22868 z m 3.95044,-0.36097 c 0.29085,-0.46535 0.44428,-3.14877 0.70281,-12.292 l 0.33073,-11.69669 -0.59515,-1.46633 c -0.32732,-0.80648 -0.75641,-1.46633 -0.95353,-1.46633 -0.19712,0 -0.67625,0.67189 -1.06474,1.49308 l -0.70634,1.49309 0.32711,11.66994 c 0.25847,9.22066 0.40637,11.79487 0.7047,12.26524 0.20766,0.32742 0.49114,0.59531 0.62996,0.59531 0.13881,0 0.41981,-0.26789 0.62445,-0.59531 z m 4.24492,0 c 0.0643,-0.32742 0.31038,-2.32172 0.54679,-4.43177 0.23641,-2.11005 0.5385,-4.55083 0.6713,-5.42396 0.67136,-4.41396 0.64163,-4.97589 -0.3785,-7.15424 -0.57302,-1.2236 -1.0757,-1.97512 -1.27657,-1.90851 -0.23547,0.0781 -0.42119,1.5966 -0.64182,5.24778 -0.17076,2.82584 -0.44018,6.9994 -0.59872,9.27458 -0.15853,2.27518 -0.21444,4.329 -0.12424,4.56406 0.0983,0.25626 0.46845,0.42737 0.9244,0.42737 0.57753,0 0.78853,-0.14317 0.87736,-0.59531 z"
       id="path843"
       inkscape:connector-curvature="0" />
  </g>
</svg>
